<?xml version="1.0" encoding="utf-8"?>
<svg version="1.1" xmlns:xlink="http://www.w3.org/1999/xlink" width="7px" height="10px" xmlns="http://www.w3.org/2000/svg">
  <defs>
    <mask fill="white" id="clip104">
      <path d="M 6.87972508591068 4.7695390781563  C 6.95990836197021 4.83633934535737  7 4.91315965263862  7 4.99999999999999  C 7 5.08684034736138  6.95990836197021 5.16366065464263  6.87972508591068 5.2304609218437  L 1.27491408934705 9.89979959919839  C 1.19473081328752 9.96659986639946  1.10252004581903 10  0.99828178694159 10  C 0.894043528064151 10  0.801832760595664 9.96659986639946  0.72164948453609 9.89979959919839  L 0.120274914089322 9.39879759519037  C 0.0400916380297872 9.33199732798932  0 9.25517702070809  0 9.16833667334668  C 0 9.08149632598531  0.0400916380297872 9.00467601870407  0.120274914089322 8.93787575150301  L 4.84707903780068 4.99999999999999  L 0.120274914089322 1.06212424849699  C 0.0400916380297872 0.995323981295935  0 0.918503674014694  0 0.831663326653318  C 0 0.744822979291908  0.0400916380297872 0.668002672010684  0.120274914089322 0.601202404809612  L 0.72164948453609 0.100200400801608  C 0.801832760595664 0.0334001336005359  0.894043528064151 0  0.99828178694159 0  C 1.10252004581903 0  1.19473081328752 0.0334001336005359  1.27491408934705 0.100200400801608  L 6.87972508591068 4.7695390781563  Z " fill-rule="evenodd" />
    </mask>
  </defs>
  <g transform="matrix(1 0 0 1 -500 -227 )">
    <path d="M 6.87972508591068 4.7695390781563  C 6.95990836197021 4.83633934535737  7 4.91315965263862  7 4.99999999999999  C 7 5.08684034736138  6.95990836197021 5.16366065464263  6.87972508591068 5.2304609218437  L 1.27491408934705 9.89979959919839  C 1.19473081328752 9.96659986639946  1.10252004581903 10  0.99828178694159 10  C 0.894043528064151 10  0.801832760595664 9.96659986639946  0.72164948453609 9.89979959919839  L 0.120274914089322 9.39879759519037  C 0.0400916380297872 9.33199732798932  0 9.25517702070809  0 9.16833667334668  C 0 9.08149632598531  0.0400916380297872 9.00467601870407  0.120274914089322 8.93787575150301  L 4.84707903780068 4.99999999999999  L 0.120274914089322 1.06212424849699  C 0.0400916380297872 0.995323981295935  0 0.918503674014694  0 0.831663326653318  C 0 0.744822979291908  0.0400916380297872 0.668002672010684  0.120274914089322 0.601202404809612  L 0.72164948453609 0.100200400801608  C 0.801832760595664 0.0334001336005359  0.894043528064151 0  0.99828178694159 0  C 1.10252004581903 0  1.19473081328752 0.0334001336005359  1.27491408934705 0.100200400801608  L 6.87972508591068 4.7695390781563  Z " fill-rule="nonzero" fill="#cccccc" stroke="none" transform="matrix(1 0 0 1 500 227 )" />
    <path d="M 6.87972508591068 4.7695390781563  C 6.95990836197021 4.83633934535737  7 4.91315965263862  7 4.99999999999999  C 7 5.08684034736138  6.95990836197021 5.16366065464263  6.87972508591068 5.2304609218437  L 1.27491408934705 9.89979959919839  C 1.19473081328752 9.96659986639946  1.10252004581903 10  0.99828178694159 10  C 0.894043528064151 10  0.801832760595664 9.96659986639946  0.72164948453609 9.89979959919839  L 0.120274914089322 9.39879759519037  C 0.0400916380297872 9.33199732798932  0 9.25517702070809  0 9.16833667334668  C 0 9.08149632598531  0.0400916380297872 9.00467601870407  0.120274914089322 8.93787575150301  L 4.84707903780068 4.99999999999999  L 0.120274914089322 1.06212424849699  C 0.0400916380297872 0.995323981295935  0 0.918503674014694  0 0.831663326653318  C 0 0.744822979291908  0.0400916380297872 0.668002672010684  0.120274914089322 0.601202404809612  L 0.72164948453609 0.100200400801608  C 0.801832760595664 0.0334001336005359  0.894043528064151 0  0.99828178694159 0  C 1.10252004581903 0  1.19473081328752 0.0334001336005359  1.27491408934705 0.100200400801608  L 6.87972508591068 4.7695390781563  Z " stroke-width="2" stroke="#d7d7d7" fill="none" transform="matrix(1 0 0 1 500 227 )" mask="url(#clip104)" />
  </g>
</svg>