<?xml version="1.0" encoding="utf-8"?>
<svg version="1.1" xmlns:xlink="http://www.w3.org/1999/xlink" width="4px" height="16px" xmlns="http://www.w3.org/2000/svg">
  <g transform="matrix(1 0 0 1 -616 -567 )">
    <path d="M 3.55819861431871 12.2159090909091  C 3.67228637413395 12.3598484848485  3.72933025404154 12.530303030303  3.72933025404154 12.7272727272727  L 3.72933025404154 15.2727272727273  C 3.72933025404154 15.469696969697  3.67228637413395 15.6401515151515  3.55819861431871 15.7840909090909  C 3.44411085450346 15.9280303030303  3.30900692840648 16  3.1528868360277 16  L 0.84711316397228 16  C 0.69099307159352 16  0.555889145496522 15.9280303030303  0.441801385681286 15.7840909090909  C 0.327713625866066 15.6401515151515  0.270669745958424 15.469696969697  0.270669745958424 15.2727272727273  L 0.270669745958424 12.7272727272727  C 0.270669745958424 12.530303030303  0.327713625866066 12.3598484848485  0.441801385681286 12.2159090909091  C 0.555889145496522 12.0719696969697  0.69099307159352 12  0.84711316397228 12  L 3.1528868360277 12  C 3.30900692840648 12  3.44411085450346 12.0719696969697  3.55819861431871 12.2159090909091  Z M 3.84191685912241 0.215909090909091  C 3.95300230946884 0.359848484848457  4.00554272517322 0.530303030303003  3.99953810623556 0.727272727272727  L 3.74734411085448 9.45454545454546  C 3.74133949191686 9.65151515151518  3.67979214780598 9.82196969696964  3.56270207852194 9.96590909090909  C 3.44561200923789 10.1098484848485  3.30900692840648 10.1818181818182  3.1528868360277 10.1818181818182  L 0.84711316397228 10.1818181818182  C 0.69099307159352 10.1818181818182  0.554387990762115 10.1098484848485  0.437297921478049 9.96590909090909  C 0.320207852193999 9.82196969696964  0.258660508083136 9.65151515151518  0.252655889145492 9.45454545454546  L 0.000461893764427907 0.727272727272727  C -0.00554272517321609 0.530303030303003  0.0469976905311729 0.359848484848457  0.158083140877611 0.215909090909091  C 0.269168591224017 0.0719696969696419  0.402771362586592 0  0.558891454965352 0  L 3.44110854503466 0  C 3.59722863741338 0  3.73083140877597 0.0719696969696419  3.84191685912241 0.215909090909091  Z " fill-rule="nonzero" fill="#02a7f0" stroke="none" transform="matrix(1 0 0 1 616 567 )" />
  </g>
</svg>