<?xml version="1.0" encoding="utf-8"?>
<svg version="1.1" xmlns:xlink="http://www.w3.org/1999/xlink" width="44px" height="52px" xmlns="http://www.w3.org/2000/svg">
  <g transform="matrix(1 0 0 1 -286 -189 )">
    <path d="M 43.7078125 37.5950520833333  C 43.9026041666667 39.2990451388889  44 41.1102430555556  44 43.0286458333333  C 44 45.4887152777778  43.2838541666667 47.5989583333333  41.8515625 49.359375  C 40.4192708333333 51.1197916666667  38.6947916666667 52  36.678125 52  L 7.321875 52  C 5.30520833333333 52  3.58072916666667 51.1197916666667  2.1484375 49.359375  C 0.716145833333333 47.5989583333333  0 45.4887152777778  0 43.0286458333333  C 0 41.1102430555556  0.0973958333333336 39.2990451388889  0.2921875 37.5950520833333  C 0.486979166666667 35.8910590277778  0.847916666666667 34.17578125  1.375 32.44921875  C 1.90208333333333 30.72265625  2.57239583333333 29.2443576388889  3.3859375 28.0143229166667  C 4.19947916666667 26.7842881944444  5.2765625 25.7799479166667  6.6171875 25.0013020833333  C 7.9578125 24.22265625  9.49895833333333 23.8333333333333  11.240625 23.8333333333333  C 14.2427083333333 26.7222222222222  17.8291666666667 28.1666666666667  22 28.1666666666667  C 26.1708333333333 28.1666666666667  29.7572916666667 26.7222222222222  32.759375 23.8333333333333  C 34.5010416666667 23.8333333333333  36.0421875 24.22265625  37.3828125 25.0013020833333  C 38.7234375 25.7799479166667  39.8005208333333 26.7842881944444  40.6140625 28.0143229166667  C 41.4276041666667 29.2443576388889  42.0979166666667 30.72265625  42.625 32.44921875  C 43.1520833333333 34.17578125  43.5130208333333 35.8910590277778  43.7078125 37.5950520833333  Z M 31.3328125 3.80859375  C 33.9109375 6.34765625  35.2 9.41145833333334  35.2 13  C 35.2 16.5885416666667  33.9109375 19.65234375  31.3328125 22.19140625  C 28.7546875 24.73046875  25.64375 26  22 26  C 18.35625 26  15.2453125 24.73046875  12.6671875 22.19140625  C 10.0890625 19.65234375  8.8 16.5885416666667  8.8 13  C 8.8 9.41145833333334  10.0890625 6.34765625  12.6671875 3.80859375  C 15.2453125 1.26953125  18.35625 0  22 0  C 25.64375 0  28.7546875 1.26953125  31.3328125 3.80859375  Z " fill-rule="nonzero" fill="#ffffff" stroke="none" transform="matrix(1 0 0 1 286 189 )" />
  </g>
</svg>