<?xml version="1.0" encoding="utf-8"?>
<svg version="1.1" xmlns:xlink="http://www.w3.org/1999/xlink" width="44px" height="51px" xmlns="http://www.w3.org/2000/svg">
  <g transform="matrix(1 0 0 1 -851 -190 )">
    <path d="M 30.3645833333333 1.93526785714286  L 42.0520833333333 13.546875  C 42.3194444444445 13.8125  42.5868055555556 14.1540178571429  42.8541666666667 15  L 29 15  L 29 1.13839285714286  C 29.7534722222222 1.40401785714285  30.0972222222222 1.66964285714285  30.3645833333333 1.93526785714286  Z M 26.46875 17.4174107142857  C 27.0034722222222 17.9486607142857  27.6527777777778 18.2142857142857  28.4166666666667 19  L 44 19  L 44 48.2678571428571  C 44 49.0267857142857  43.7326388888889 49.671875  43.1979166666667 50.203125  C 42.6631944444445 50.734375  42.0138888888889 51  41.25 51  L 2.75 51  C 1.98611111111111 51  1.33680555555556 50.734375  0.802083333333333 50.203125  C 0.267361111111111 49.671875  0 49.0267857142857  0 48.2678571428571  L 0 2.73214285714286  C 0 1.97321428571428  0.267361111111111 1.328125  0.802083333333333 0.796875  C 1.33680555555556 0.265625000000002  1.98611111111111 0  2.75 0  L 25 0  L 25 15.4821428571429  C 25.6666666666667 16.2410714285714  25.9340277777778 16.8861607142857  26.46875 17.4174107142857  Z M 32.7421875 39.8152901785714  C 32.9140625 39.64453125  33 39.4263392857143  33 39.1607142857143  L 33 37.3392857142857  C 33 37.0736607142857  32.9140625 36.85546875  32.7421875 36.6847098214286  C 32.5703125 36.5139508928571  32.3506944444445 36.4285714285714  32.0833333333333 36  L 11.9166666666667 36  C 11.6493055555556 36.4285714285714  11.4296875 36.5139508928571  11.2578125 36.6847098214286  C 11.0859375 36.85546875  11 37.0736607142857  11 37.3392857142857  L 11 39.1607142857143  C 11 39.4263392857143  11.0859375 39.64453125  11.2578125 39.8152901785714  C 11.4296875 39.9860491071429  11.6493055555556 40.0714285714286  11.9166666666667 40  L 32.0833333333333 40  C 32.3506944444445 40.0714285714286  32.5703125 39.9860491071429  32.7421875 39.8152901785714  Z M 32.7421875 32.5295758928571  C 32.9140625 32.3588169642857  33 32.140625  33 31.875  L 33 30.0535714285714  C 33 29.7879464285714  32.9140625 29.5697544642857  32.7421875 29.3989955357143  C 32.5703125 29.2282366071429  32.3506944444445 29.1428571428571  32.0833333333333 29  L 11.9166666666667 29  C 11.6493055555556 29.1428571428571  11.4296875 29.2282366071429  11.2578125 29.3989955357143  C 11.0859375 29.5697544642857  11 29.7879464285714  11 30.0535714285714  L 11 31.875  C 11 32.140625  11.0859375 32.3588169642857  11.2578125 32.5295758928571  C 11.4296875 32.7003348214286  11.6493055555556 32.7857142857143  11.9166666666667 32  L 32.0833333333333 32  C 32.3506944444445 32.7857142857143  32.5703125 32.7003348214286  32.7421875 32.5295758928571  Z M 32.7421875 25.2438616071429  C 32.9140625 25.0731026785714  33 24.8549107142857  33 24.5892857142857  L 33 22.7678571428571  C 33 22.5022321428571  32.9140625 22.2840401785714  32.7421875 22.11328125  C 32.5703125 21.9425223214286  32.3506944444445 21.8571428571429  32.0833333333333 22  L 11.9166666666667 22  C 11.6493055555556 21.8571428571429  11.4296875 21.9425223214286  11.2578125 22.11328125  C 11.0859375 22.2840401785714  11 22.5022321428571  11 22.7678571428571  L 11 24.5892857142857  C 11 24.8549107142857  11.0859375 25.0731026785714  11.2578125 25.2438616071429  C 11.4296875 25.4146205357143  11.6493055555556 25.5  11.9166666666667 25  L 32.0833333333333 25  C 32.3506944444445 25.5  32.5703125 25.4146205357143  32.7421875 25.2438616071429  Z " fill-rule="nonzero" fill="#ffffff" stroke="none" transform="matrix(1 0 0 1 851 190 )" />
  </g>
</svg>