<?xml version="1.0" encoding="utf-8"?>
<svg version="1.1" xmlns:xlink="http://www.w3.org/1999/xlink" width="28px" height="28px" xmlns="http://www.w3.org/2000/svg">
  <g transform="matrix(1 0 0 1 -19 -17 )">
    <path d="M 12.2487821386719 3.30371240234375  L 2.27061986328125 13.2818746777344  C 1.88761970703125 13.6648748339844  1.2728036328125 13.6648748339844  0.8898034765625 13.2818746777344  C 0.5068033203125 12.8988745214844  0.51184279296875 12.2840584472656  0.8898034765625 11.9010582910156  L 10.8679657519531 1.922896015625  C 11.2509659082031 1.539895859375  11.8657819824219 1.539895859375  12.2487821386719 1.922896015625  C 12.6317822949219 2.30589620117187  12.6317822949219 2.92071224609375  12.2487821386719 3.30371240234375  Z M 26.077103984375 17.1269948046875  L 16.0989417089844 27.1051570800781  C 15.7159415527344 27.4881572363281  15.1011254785156 27.4881572363281  14.7181253222656 27.1051570800781  C 14.3351251660156 26.7221569238281  14.3401646386719 26.1073408496094  14.7181253222656 25.7243406933594  L 24.6962875976563 15.7461784179687  C 25.0792877539063 15.3631782617187  25.694103828125 15.3631782617187  26.077103984375 15.7461784179687  C 26.460104140625 16.1291785742188  26.4550646679687 16.7490340917969  26.077103984375 17.1269948046875  Z M 12.2185452734375 17.1874685058594  L 9.19989921875 20.2061145605469  C 8.8168990625 20.5891147167969  8.20208298828125 20.5891147167969  7.81908283203125 20.2061145605469  C 7.43608267578125 19.8231144042969  7.4411221484375 19.2082983300781  7.81908283203125 18.8252981738281  L 10.8377288867188 15.8066521191406  C 11.2207290429688 15.4236519628906  11.8355451171875 15.4236519628906  12.2185452734375 15.8066521191406  C 12.6015454296875 16.1896522753906  12.6015454296875 16.8095078222656  12.2185452734375 17.1874685058594  Z M 7.74349068359375 14.3804804199219  L 5.55635814453125 16.5676129589844  C 5.17335798828125 16.9506131152344  4.5585419140625 16.9506131152344  4.1755417578125 16.5676129589844  C 3.7925416015625 16.1846128027344  3.79758107421875 15.5697967285156  4.1755417578125 15.1867965722656  L 6.362674296875 12.9996640332031  C 6.745674453125 12.6166638769531  7.36049052734375 12.6166638769531  7.74349068359375 12.9996640332031  C 8.1214513671875 13.3826641894531  8.1214513671875 14.0025197363281  7.74349068359375 14.3804804199219  Z M 14.9751385742187 21.6171678125  L 12.7880060351562 23.8043003515625  C 12.4050058789062 24.1873005078125  11.7901898046875 24.1873005078125  11.4071896484375 23.8043003515625  C 11.0241894921875 23.4213001953125  11.0292289648437 22.8064841210937  11.4071896484375 22.4234839648438  L 13.5943221875 20.2363514257813  C 13.97732234375 19.8533512695313  14.5921384179687 19.8533512695313  14.9751385742187 20.2363514257813  C 15.3581387597656 20.6193515820313  15.3581387597656 21.23416765625  14.9751385742187 21.6171678125  Z M 14.7130858496094 27.1051570507812  L 0.889803447265625 13.2869141503906  C 0.506803291015625 12.9039139941406  0.506803291015625 12.2890979199219  0.889803447265625 11.9060977636719  C 1.27280360351562 11.5230976074219  1.88761967773438 11.5281370800781  2.27061983398437 11.9060977636719  L 16.0939022070312 25.7293801367187  C 16.4769023632813 26.1123802929688  16.4769023632813 26.7271963671875  16.0939022070312 27.1101965234375  C 15.7109020800781 27.4881572363281  15.0960860058594 27.4881572363281  14.7130858496094 27.1051570507812  Z M 20.4530488964844 21.3702335058594  L 6.62976649414063 7.54695110351562  C 6.24676633789063 7.16395094726562  6.24676633789063 6.54913487304688  6.62976649414063 6.16613471679687  C 7.01276665039063 5.78313456054688  7.62758272460938 5.78817403320312  8.01058288085938 6.16613471679687  L 21.8288258105469 19.9894170898437  C 22.2118259667969 20.3724172460938  22.2118259667969 20.9872333203125  21.8288258105469 21.3702334765625  C 21.4508650976562 21.7532336621094  20.8310095800781 21.7481941894531  20.4530488964844 21.3702335058594  Z M 25.7293801367187 5.43037124023437  L 22.5746682324219 2.27061986328125  C 22.1916680761719 1.88761970703125  22.1916680761719 1.2728036328125  22.5746682324219 0.8898034765625  C 22.9576683886719 0.5068033203125  23.5724844628906 0.51184279296875  23.9554846191406 0.8898034765625  L 27.1101965234375 4.04955485351562  C 27.4931966796875 4.43255500976562  27.4931966796875 5.04737108398438  27.1101965234375 5.43037124023437  C 26.7271963671875 5.81337139648438  26.1073408496094 5.81337139648438  25.7293801367187 5.43037124023437  Z M 16.2047706933594 8.63043842773438  L 10.8780446972656 3.30371240234375  C 10.4950445410156 2.92071224609375  10.4950445410156 2.305896171875  10.8780446972656 1.922896015625  C 11.2610448535156 1.539895859375  11.8758609277344 1.54493533203125  12.2588610839844 1.922896015625  L 17.5906265820313 7.25466151367187  C 17.9736267382813 7.63766166992187  17.9736267382813 8.25247774414062  17.5906265820313 8.63547790039062  C 17.2076263964844 9.01343861328125  16.5877708789063 9.01343861328125  16.2047706933594 8.63043842773438  Z M 24.6962875976563 17.1219553027344  L 19.3695615722656 11.7952293066406  C 18.9865614160156 11.4122291503906  18.9865614160156 10.7974130761719  19.3695615722656 10.4144129199219  C 19.7525617285156 10.0314127636719  20.3673778027344 10.0364522363281  20.7503779589844 10.4144129199219  L 26.0821434570313 15.7461784179688  C 26.4651436132812 16.1291785742188  26.4651436132812 16.7439946484375  26.0821434570313 17.1269948046875  C 25.6991433007812 17.5049554882813  25.0792877539063 17.5049554882813  24.6962875976563 17.1219553027344  Z M 27.1051570507812 5.43037124023437  L 20.7453384863281 11.7901898339844  C 20.3623383300781 12.1731899902344  19.7475222558594 12.1731899902344  19.3645220996094 11.7901898339844  C 18.9815219433594 11.4071896777344  18.9865614160156 10.7923736035156  19.3645220996094 10.4093734472656  L 25.7243406640625 4.0495548828125  C 26.1073408203125 3.6665547265625  26.7221568945313 3.6665547265625  27.1051570507812 4.0495548828125  C 27.4881572363281 4.42751553710938  27.4881572363281 5.04737108398438  27.1051570507812 5.43037124023437  Z M 23.9504451464844 2.27061986328125  L 17.585587109375 8.63043842773438  C 17.202586953125 9.01343858398438  16.5877708789063 9.01343858398438  16.2047707226563 8.63043842773438  C 15.8217705664062 8.24743827148438  15.8268100390625 7.63262219726562  16.2047707226563 7.24962204101563  L 22.5696287597656 0.889803447265625  C 22.9526289160156 0.506803291015625  23.5674449902344 0.506803291015625  23.9504451464844 0.889803447265625  C 24.3334453320313 1.2728036328125  24.328405859375 1.88761967773438  23.9504451464844 2.27061986328125  Z " fill-rule="nonzero" fill="#3366ff" stroke="none" transform="matrix(1 0 0 1 19 17 )" />
  </g>
</svg>