<?xml version="1.0" encoding="utf-8"?>
<svg version="1.1" xmlns:xlink="http://www.w3.org/1999/xlink" width="26px" height="20px" xmlns="http://www.w3.org/2000/svg">
  <g transform="matrix(1 0 0 1 -1229 -489 )">
    <path d="M 24.5491071428571 7.68465909090909  C 25.1004464285714 7.31534090909091  25.5840773809524 6.90340909090909  26 6.44886363636363  L 26 17.7272727272727  C 26 18.3522727272727  25.772693452381 18.8873106060606  25.3180803571429 19.3323863636364  C 24.8634672619048 19.7774621212121  24.3169642857143 20  23.6785714285714 20  L 2.32142857142857 20  C 1.68303571428571 20  1.13653273809524 19.7774621212121  0.681919642857143 19.3323863636364  C 0.227306547619048 18.8873106060606  0 18.3522727272727  0 17.7272727272727  L 0 6.44886363636363  C 0.425595238095238 6.91287878787879  0.9140625 7.3248106060606  1.46540178571429 7.68465909090909  C 4.96688988095238 10.0142045454545  7.37053571428571 11.6477272727273  8.67633928571429 12.5852272727273  C 9.22767857142857 12.9829545454545  9.67503720238095 13.2930871212121  10.0184151785714 13.515625  C 10.3617931547619 13.7381628787879  10.8188244047619 13.9654356060606  11.3895089285714 14.1974431818182  C 11.960193452381 14.4294507575758  12.4921875 14.5454545454545  12.9854910714286 14.5454545454545  L 13 14.5454545454545  L 13.0145089285714 14.5454545454545  C 13.5078125 14.5454545454545  14.039806547619 14.4294507575758  14.6104910714286 14.1974431818182  C 15.1811755952381 13.9654356060606  15.6382068452381 13.7381628787879  15.9815848214286 13.515625  C 16.324962797619 13.2930871212121  16.7723214285714 12.9829545454545  17.3236607142857 12.5852272727273  C 18.968005952381 11.4204545454545  21.3764880952381 9.78693181818182  24.5491071428571 7.68465909090909  Z M 25.3108258928571 0.667613636363635  C 25.770275297619 1.11268939393939  26 1.64772727272727  26 2.27272727272727  C 26 3.02083333333333  25.7630208333333 3.73579545454545  25.2890625 4.41761363636363  C 24.8151041666667 5.09943181818182  24.2250744047619 5.68181818181818  23.5189732142857 6.16477272727273  C 19.882068452381 8.63636363636363  17.6186755952381 10.1751893939394  16.7287946428571 10.78125  C 16.632068452381 10.8475378787879  16.426525297619 10.9919507575758  16.1121651785714 11.2144886363636  C 15.7978050595238 11.4370265151515  15.5366443452381 11.6169507575758  15.3286830357143 11.7542613636364  C 15.1207217261905 11.891571969697  14.8692336309524 12.0454545454545  14.57421875 12.2159090909091  C 14.2792038690476 12.3863636363636  14.0011160714286 12.5142045454545  13.7399553571429 12.5994318181818  C 13.4787946428571 12.6846590909091  13.2369791666667 12.7272727272727  13.0145089285714 12.7272727272727  L 13 12.7272727272727  L 12.9854910714286 12.7272727272727  C 12.7630208333333 12.7272727272727  12.5212053571429 12.6846590909091  12.2600446428571 12.5994318181818  C 11.9988839285714 12.5142045454545  11.7207961309524 12.3863636363636  11.42578125 12.2159090909091  C 11.1307663690476 12.0454545454545  10.8792782738095 11.891571969697  10.6713169642857 11.7542613636364  C 10.4633556547619 11.6169507575758  10.2021949404762 11.4370265151515  9.88783482142857 11.2144886363636  C 9.57347470238095 10.9919507575758  9.36793154761905 10.8475378787879  9.27120535714286 10.78125  C 8.39099702380952 10.1751893939394  7.12388392857143 9.31107954545455  5.46986607142857 8.18892045454545  C 3.81584821428571 7.06676136363636  2.82440476190476 6.39204545454545  2.49553571428571 6.16477272727273  C 1.89583333333333 5.76704545454545  1.32998511904762 5.22017045454545  0.797991071428572 4.52414772727273  C 0.265997023809524 3.828125  0 3.18181818181818  0 2.58522727272727  C 0 1.84659090909091  0.200706845238095 1.2310606060606  0.602120535714286 0.738636363636365  C 1.00353422619048 0.246212121212119  1.57663690476191 0  2.32142857142857 0  L 23.6785714285714 0  C 24.3072916666667 0  24.8513764880952 0.222537878787876  25.3108258928571 0.667613636363635  Z " fill-rule="nonzero" fill="#000000" stroke="none" transform="matrix(1 0 0 1 1229 489 )" />
  </g>
</svg>