<?xml version="1.0" encoding="utf-8"?>
<svg version="1.1" xmlns:xlink="http://www.w3.org/1999/xlink" width="14px" height="6px" xmlns="http://www.w3.org/2000/svg">
  <g transform="matrix(1 0 0 1 -1104 -114 )">
    <path d="M 13.6700336700337 4.48484848484848  C 13.8900112233446 4.57912457912458  14 4.69360269360269  14 4.82828282828283  C 14 4.96296296296296  13.8900112233446 5.07744107744108  13.6700336700337 5.17171717171717  L 12.0673400673401 5.85858585858586  C 11.8473625140292 5.95286195286195  11.5802469135802 6  11.2659932659933 6  C 10.9517396184063 6  10.6846240179574 5.95286195286195  10.4646464646465 5.85858585858586  L 7 4.37373737373737  L 3.53535353535354 5.85858585858586  C 3.31537598204265 5.95286195286195  3.04826038159371 6  2.73400673400673 6  C 2.41975308641975 6  2.15263748597082 5.95286195286195  1.93265993265993 5.85858585858586  L 0.32996632996633 5.17171717171717  C 0.109988776655443 5.07744107744108  0 4.96296296296296  0 4.82828282828283  C 0 4.69360269360269  0.109988776655443 4.57912457912458  0.32996632996633 4.48484848484848  L 3.79461279461279 3  L 0.32996632996633 1.51515151515151  C 0.109988776655443 1.42087542087542  0 1.30639730639731  0 1.17171717171717  C 0 1.03703703703704  0.109988776655443 0.922558922558922  0.32996632996633 0.828282828282829  L 1.93265993265993 0.141414141414141  C 2.15263748597082 0.0471380471380469  2.41975308641975 0  2.73400673400673 0  C 3.04826038159371 0  3.31537598204265 0.0471380471380469  3.53535353535354 0.141414141414141  L 7 1.62626262626263  L 10.4646464646465 0.141414141414141  C 10.6846240179574 0.0471380471380469  10.9517396184063 0  11.2659932659933 0  C 11.5802469135802 0  11.8473625140292 0.0471380471380469  12.0673400673401 0.141414141414141  L 13.6700336700337 0.828282828282829  C 13.8900112233446 0.922558922558922  14 1.03703703703704  14 1.17171717171717  C 14 1.30639730639731  13.8900112233446 1.42087542087542  13.6700336700337 1.51515151515151  L 10.2053872053872 3  L 13.6700336700337 4.48484848484848  Z " fill-rule="nonzero" fill="#333333" stroke="none" transform="matrix(1 0 0 1 1104 114 )" />
  </g>
</svg>