<?xml version="1.0" encoding="utf-8"?>
<svg version="1.1" xmlns:xlink="http://www.w3.org/1999/xlink" width="24px" height="24px" xmlns="http://www.w3.org/2000/svg">
  <g transform="matrix(1 0 0 1 -1253 -117 )">
    <path d="M 6 16  L 6 22  L 18 22  L 18 16  L 6 16  Z M 20 15.5  L 20 22  L 22 22  L 22 8  C 22 7.85416666666666  21.9479166666667 7.65364583333333  21.84375 7.3984375  C 21.7395833333333 7.14322916666667  21.6354166666667 6.96354166666666  21.53125 6.859375  L 17.140625 2.46875  C 17.0364583333333 2.36458333333333  16.859375 2.26041666666666  16.609375 2.15625  C 16.359375 2.05208333333333  16.15625 2  16 2  L 16 8.5  C 16 8.91666666666667  15.8541666666667 9.27083333333333  15.5625 9.5625  C 15.2708333333333 9.85416666666667  14.9166666666667 10  14.5 10  L 5.5 10  C 5.08333333333333 10  4.72916666666667 9.85416666666667  4.4375 9.5625  C 4.14583333333333 9.27083333333333  4 8.91666666666667  4 8.5  L 4 2  L 2 2  L 2 22  L 4 22  L 4 15.5  C 4 15.0833333333333  4.14583333333333 14.7291666666667  4.4375 14.4375  C 4.72916666666667 14.1458333333333  5.08333333333333 14  5.5 14  L 18.5 14  C 18.9166666666667 14  19.2708333333333 14.1458333333333  19.5625 14.4375  C 19.8541666666667 14.7291666666667  20 15.0833333333333  20 15.5  Z M 13.8515625 7.8515625  C 13.9505208333333 7.75260416666667  14 7.63541666666667  14 7.5  L 14 2.5  C 14 2.36458333333333  13.9505208333333 2.24739583333333  13.8515625 2.1484375  C 13.7526041666667 2.04947916666666  13.6354166666667 2  13.5 2  L 10.5 2  C 10.3645833333333 2  10.2473958333333 2.04947916666666  10.1484375 2.1484375  C 10.0494791666667 2.24739583333333  10 2.36458333333333  10 2.5  L 10 7.5  C 10 7.63541666666667  10.0494791666667 7.75260416666667  10.1484375 7.8515625  C 10.2473958333333 7.95052083333333  10.3645833333333 8  10.5 8  L 13.5 8  C 13.6354166666667 8  13.7526041666667 7.95052083333333  13.8515625 7.8515625  Z M 23.6875 6.625  C 23.8958333333333 7.125  24 7.58333333333333  24 8  L 24 22.5  C 24 22.9166666666667  23.8541666666667 23.2708333333333  23.5625 23.5625  C 23.2708333333333 23.8541666666667  22.9166666666667 24  22.5 24  L 1.5 24  C 1.08333333333333 24  0.729166666666667 23.8541666666667  0.4375 23.5625  C 0.145833333333333 23.2708333333333  0 22.9166666666667  0 22.5  L 0 1.5  C 0 1.08333333333333  0.145833333333333 0.729166666666663  0.4375 0.437499999999999  C 0.729166666666667 0.145833333333332  1.08333333333333 0  1.5 0  L 16 0  C 16.4166666666667 0  16.875 0.104166666666664  17.375 0.312500000000001  C 17.875 0.520833333333332  18.2708333333333 0.770833333333331  18.5625 1.0625  L 22.9375 5.4375  C 23.2291666666667 5.72916666666666  23.4791666666667 6.125  23.6875 6.625  Z " fill-rule="nonzero" fill="#02a7f0" stroke="none" transform="matrix(1 0 0 1 1253 117 )" />
  </g>
</svg>