<?xml version="1.0" encoding="utf-8"?>
<svg version="1.1" xmlns:xlink="http://www.w3.org/1999/xlink" width="15px" height="16px" xmlns="http://www.w3.org/2000/svg">
  <g transform="matrix(1 0 0 1 -33 -84 )">
    <path d="M 0.880887784090916 6.60884232954544  C 0.614978693181826 6.87545454545455  0.614978693181826 7.30636363636364  0.88154829545455 7.57293323863638  C 1.14816051136363 7.83954545454543  1.57902698863636 7.83954545454543  1.84563920454546 7.57293323863638  L 7 2.60043323863636  L 7 14.5908877840909  C 6.81813920454546 14.9672727272727  7.12359374999998 15.2727272727273  7.49997869318182 15.2727272727273  C 7.87636363636365 15.2727272727273  8.18181818181819 14.9672727272727  8 14.5908877840909  L 8 2.60043323863636  L 13.1543181818182 7.57293323863638  C 13.4209303977273 7.83954545454543  13.851796875 7.83954545454543  14.1184090909091 7.57293323863638  C 14.3850213068182 7.30632102272727  14.3850213068182 6.87545454545455  14.1184090909091 6.60884232954544  L 7.98202414772729 0.473139204545447  C 7.91931818181818 0.409730113636357  7.84363636363636 0.359957386363618  7.75977272727273 0.325184659090894  C 7.67727272727274 0.290411931818198  7.58863636363637 0.272705965909068  7.49997869318182 0.272705965909068  C 7.41136363636366 0.272705965909068  7.32268465909091 0.290454545454537  7.23952414772727 0.325184659090894  C 7.15566051136365 0.359957386363618  7.08068181818182 0.409730113636357  7.01727272727273 0.473139204545447  L 0.880887784090916 6.60884232954544  Z " fill-rule="nonzero" fill="#666666" stroke="none" transform="matrix(1 0 0 1 33 84 )" />
  </g>
</svg>