<?xml version="1.0" encoding="utf-8"?>
<svg version="1.1" xmlns:xlink="http://www.w3.org/1999/xlink" width="14px" height="14px" xmlns="http://www.w3.org/2000/svg">
  <g transform="matrix(1 0 0 1 -1243 -103 )">
    <path d="M 7.69999999999999 6.3  L 7.69999999999999 3.5  L 6.30000000000001 3.5  L 6.30000000000001 6.3  L 3.5 6.3  L 3.5 7.7  L 6.30000000000001 7.7  L 6.30000000000001 10.5  L 7.69999999999999 10.5  L 7.69999999999999 7.7  L 10.5 7.7  L 10.5 6.3  L 7.69999999999999 6.3  Z M 14 7  C 14 3.136  10.864 0  7 0  C 3.136 0  0 3.136  0 7  C 0 10.864  3.136 14  7 14  C 10.864 14  14 10.864  14 7  Z M 12.6 7  C 12.6 10.087  10.087 12.6  7 12.6  C 3.91300000000001 12.6  1.40000000000003 10.087  1.40000000000003 7  C 1.40000000000003 3.913  3.91300000000001 1.39999999999999  7 1.39999999999999  C 10.087 1.39999999999999  12.6 3.913  12.6 7  Z " fill-rule="nonzero" fill="#ffffff" stroke="none" transform="matrix(1 0 0 1 1243 103 )" />
  </g>
</svg>