<?xml version="1.0" encoding="utf-8"?>
<svg version="1.1" xmlns:xlink="http://www.w3.org/1999/xlink" width="14px" height="14px" xmlns="http://www.w3.org/2000/svg">
  <g transform="matrix(1 0 0 1 -1399 -103 )">
    <path d="M 13.0556515957446 2.85073138297872  L 13.0454122340425 2.85073138297872  C 12.9406914893616 1.25525265957447  10.1309175531915 0.0186170212765973  6.55319148936178 0.0186170212765973  C 2.97546542553187 0.0186170212765973  0.165226063829778 1.25525265957447  0.0609707446808443 2.85073138297872  L 0.0507313829787108 2.85073138297872  L 0.0507313829787108 11.0561835106383  C 0.0507313829787108 12.6958776595745  2.90611702127649 13.9813829787234  6.55319148936178 13.9813829787234  C 10.1998005319149 13.9813829787234  13.0556515957446 12.6958776595745  13.0556515957446 11.0566489361702  L 13.0556515957446 2.85073138297872  Z M 6.55319148936178 1.0029920212766  C 9.8130319148936 1.0029920212766  12.0177526595744 2.01994680851064  12.1015292553191 3.06808510638298  C 12.0186835106383 4.11715425531915  9.8130319148936 5.13317819148936  6.55319148936178 5.13317819148936  C 3.29288563829778 5.13317819148936  1.08863031914893 4.11715425531915  1.00485372340427 3.06901595744681  C 1.08769946808502 2.01994680851064  3.29288563829778 1.00345744680851  6.55319148936178 1.00345744680851  Z M 12.1094414893616 10.8700132978723  C 12.1094414893616 11.9390957446809  9.876329787234 12.9956117021277  6.55319148936178 12.9956117021277  C 3.22958776595738 12.9956117021277  0.996941489361689 11.9390957446809  0.996941489361689 10.8700132978723  L 0.996941489361689 8.75139627659574  C 2.12746010638307 9.5905585106383  4.16788563829778 10.1416223404255  6.55319148936178 10.1416223404255  C 8.93849734042556 10.1416223404255  10.9789228723403 9.5905585106383  12.1094414893616 8.75139627659574  L 12.1094414893616 10.8700132978723  Z M 12.1094414893616 4.72872340425532  L 12.1094414893616 6.87386968085106  L 12.1094414893616 7.03025265957447  C 12.1094414893616 8.09980053191489  9.87586436170204 9.15585106382979  6.55319148936178 9.15585106382979  C 3.22958776595738 9.15585106382979  0.996941489361689 8.10026595744681  0.996941489361689 7.0311835106383  L 0.996941489361689 4.72872340425532  C 2.1279255319148 5.56695478723404  4.16788563829778 6.11894946808511  6.55319148936178 6.11894946808511  C 8.93849734042556 6.11894946808511  10.9789228723403 5.56788563829787  12.1094414893616 4.72872340425532  Z " fill-rule="nonzero" fill="#666666" stroke="none" transform="matrix(1 0 0 1 1399 103 )" />
  </g>
</svg>