<?xml version="1.0" encoding="utf-8"?>
<svg version="1.1" xmlns:xlink="http://www.w3.org/1999/xlink" width="15px" height="14px" xmlns="http://www.w3.org/2000/svg">
  <g transform="matrix(1 0 0 1 -1528 -103 )">
    <path d="M 13.9950284090908 1.74875710227273  C 14.1607481060605 1.84197443181818  14.2436079545455 1.98180042613637  14.2436079545455 2.16823508522727  L 14.2436079545455 5.4619140625  C 14.2436079545455 5.64834872159091  14.1607481060605 5.78817471590909  13.9950284090908 5.88139204545455  L 11.1518998579545 7.52823153409091  C 11.0725273281971 7.56881912553591  10.9846997223326 7.59011066635158  10.8955522017045 7.59037642045455  C 10.8111921590387 7.5913739532636  10.7280833836289 7.56992652735141  10.6547407670455 7.52823153409091  L 10.4993785511363 7.43501420454545  L 10.4993785511363 7.57484019886363  C 10.4993785511363 7.76127485795455  10.4165187026515 7.90110085227273  10.2507990056818 7.99431818181818  L 10.1575816761363 8.05646306818182  L 10.2507990056818 8.11860795454545  C 10.4165187026515 8.21182528409091  10.4993785511363 8.35165127840909  10.4993785511363 8.5380859375  L 10.4993785511363 11.8317649147727  C 10.4993785511363 12.0181995738636  10.4165187026515 12.1580255681818  10.2507990056818 12.2512428977273  L 7.4076704545455 13.8980823863636  C 7.25230823863626 13.9809422348485  7.0658735795455 13.9809422348485  6.91051136363626 13.8980823863636  L 4.0673828125 12.2512428977273  C 3.90166311553025 12.1580255681818  3.8188032670455 12.0181995738636  3.8188032670455 11.8317649147727  L 3.8188032670455 8.5380859375  C 3.8188032670455 8.35165127840909  3.90166311553025 8.21182528409091  4.0673828125 8.11860795454545  L 4.1606001420455 8.05646306818182  L 4.0673828125 7.99431818181818  C 3.90166311553025 7.90110085227273  3.8188032670455 7.76127485795455  3.8188032670455 7.57484019886363  L 3.8188032670455 7.43501420454545  L 3.66344105113626 7.52823153409091  C 3.50807883522725 7.61109138257576  3.32164417613626 7.61109138257576  3.16628196022725 7.52823153409091  L 0.323153409090992 5.88139204545455  C 0.157433712121247 5.78817471590909  0.0745738636362603 5.64834872159091  0.0745738636362603 5.4619140625  L 0.0745738636362603 2.16823508522727  C 0.0745738636362603 1.98180042613637  0.157433712121247 1.84197443181818  0.323153409090992 1.74875710227273  L 3.16628196022725 0.101917613636367  C 3.32164417613626 0.0190577651515156  3.50807883522725 0.0190577651515156  3.66344105113626 0.101917613636367  L 6.50656960227275 1.74875710227273  C 6.67228929924249 1.84197443181818  6.75514914772725 1.98180042613637  6.75514914772725 2.16823508522727  L 6.75514914772725 2.30806107954545  L 6.91051136363626 2.21484375  C 6.98989615675441 2.17428922297289  7.07771573869263 2.15299962735147  7.16685901988626 2.15269886363637  C 7.25120554782234 2.1518127609918  7.33428574367053 2.17325281153326  7.4076704545455 2.21484375  L 7.56303267045451 2.30806107954545  L 7.56303267045451 2.16823508522727  C 7.56303267045451 1.98180042613637  7.64589251893926 1.84197443181818  7.81161221590901 1.74875710227273  L 10.6547407670455 0.101917613636367  C 10.7281115026499 0.0602921071667311  10.8112011762937 0.0388496107424885  10.8955522017045 0.0397727272727266  C 10.9846905466816 0.0401141822691002  11.072500819065 0.0614015210287064  11.1518998579545 0.101917613636367  L 13.9950284090908 1.74875710227273  Z M 3.41486150568176 6.37855113636364  L 3.8188032670455 6.1455078125  L 3.8188032670455 4.28116122159091  C 3.8188032670455 4.0947265625  3.90166311553025 3.95490056818182  4.0673828125 3.86168323863636  L 5.63654119318176 2.96058238636363  L 5.63654119318176 2.52556818181818  L 3.41486150568176 1.25159801136363  L 1.19318181818176 2.52556818181818  L 1.19318181818176 5.10458096590909  L 3.41486150568176 6.37855113636364  Z M 9.7847123579545 7.45055042613637  L 9.7847123579545 7.03107244318182  L 7.81161221590901 5.88139204545455  C 7.64589251893926 5.78817471590909  7.56303267045451 5.64834872159091  7.56303267045451 5.4619140625  L 7.56303267045451 3.13148082386363  L 7.15909090909099 2.8984375  L 6.75514914772725 3.13148082386363  L 6.75514914772725 5.4619140625  C 6.75514914772725 5.64834872159091  6.67228929924249 5.78817471590909  6.50656960227275 5.88139204545455  L 4.53346946022725 7.01553622159091  L 4.53346946022725 7.45055042613637  L 4.89080255681824 7.65252130681818  L 6.91051136363626 6.47176846590909  C 7.0658735795455 6.38890861742424  7.25230823863626 6.38890861742424  7.4076704545455 6.47176846590909  L 9.42737926136351 7.65252130681818  L 9.7847123579545 7.45055042613637  Z M 5.63654119318176 3.78400213068182  L 4.53346946022725 4.42098721590909  L 4.53346946022725 5.72602982954545  L 5.63654119318176 5.10458096590909  L 5.63654119318176 3.78400213068182  Z M 9.38077059659076 8.91095525568182  L 9.0234375 8.708984375  L 7.4076704545455 9.64115767045455  C 7.25230823863626 9.72401751893939  7.0658735795455 9.72401751893939  6.91051136363626 9.64115767045455  L 5.29474431818176 8.708984375  L 4.93741122159099 8.91095525568182  L 4.93741122159099 11.4744318181818  L 7.15909090909099 12.7484019886364  L 9.38077059659076 11.4744318181818  L 9.38077059659076 8.91095525568182  Z M 6.00941051136351 8.28950639204545  L 7.15909090909099 8.95756392045455  L 8.30877130681824 8.28950639204545  L 7.15909090909099 7.62144886363637  L 6.00941051136351 8.28950639204545  Z M 13.125 5.10458096590909  L 13.125 2.52556818181818  L 10.9033203125 1.25159801136363  L 8.681640625 2.52556818181818  L 8.681640625 2.96058238636363  L 10.2507990056818 3.86168323863636  C 10.4165187026515 3.95490056818182  10.4993785511363 4.0947265625  10.4993785511363 4.28116122159091  L 10.4993785511363 6.1455078125  L 10.9033203125 6.37855113636364  L 13.125 5.10458096590909  Z M 9.7847123579545 5.72602982954545  L 9.7847123579545 4.40545099431818  L 8.681640625 3.76846590909091  L 8.681640625 5.10458096590909  L 9.7847123579545 5.72602982954545  Z " fill-rule="nonzero" fill="#666666" stroke="none" transform="matrix(1 0 0 1 1528 103 )" />
  </g>
</svg>