<?xml version="1.0" encoding="utf-8"?>
<svg version="1.1" xmlns:xlink="http://www.w3.org/1999/xlink" width="22px" height="22px" xmlns="http://www.w3.org/2000/svg">
  <g transform="matrix(1 0 0 1 -65 -8 )">
    <path d="M 22 11  C 22 4.92440456677096  17.0755702733251 0  11 0  C 4.9248571502001 0  0 4.92440456677096  0 11  C 0 17.075595433229  4.9248571502001 22  11 22  C 17.0755954332291 22  22 17.075595433229  22 11  Z M 21.083316564159 11  C 21.083316564159 13.4465508329168  20.2069371323288 15.6916068302546  18.7526994238342 17.439010270758  C 17.7474125605219 17.0191748399388  15.3738514198935 16.1956457029138  13.9053074312658 15.7623839743456  C 13.7795177148396 15.722985112623  13.7602834350743 15.7166994118439  13.7602834350743 15.1948342558043  C 13.7602834350743 14.7642628187667  13.9370880018257 14.3310011147687  14.109869711233 13.9639405481833  C 14.297385148869 13.5646719875128  14.519396559359 12.8942125367969  14.5985965709955 12.2926445395943  C 14.821940571869 12.0338993990084  15.1254148620009 11.5236502561416  15.3200960073703 10.5514765292025  C 15.4914948557266 9.69392908894598  15.4114399970398 9.38233367812498  15.2981463007407 9.0897210954506  C 15.2861028640428 9.0583679484159  15.2735565978183 9.02791994366934  15.2650582997013 8.99747196349298  C 15.222089164064 8.79698281153716  15.2807474408856 7.75232224640632  15.4275314509857 6.94209368132107  C 15.5291588880146 6.38623540652416  15.4020114458711 5.2045965353195  14.6366377315709 4.22611197226749  C 14.153241159632 3.60845254568931  13.2281097209118 2.84936453216822  11.5388617277034 2.74368912703178  L 10.6123222925983 2.74461940465368  C 8.95178742556155 2.84936455673844  8.02663087607785 3.60845254568931  7.54323430413886 4.22611197226749  C 6.77783545450492 5.2045965353195  6.65071317226534 6.38623540652416  6.75186286596119 6.94209368132107  C 6.89912457025403 7.75229711107254  6.95773257640798 8.79695767620339  6.91569371839263 8.99390168957823  C 6.90626514265374 9.02789483290578  6.89376914709681 9.05834283765235  6.88170057506507 9.08972112002082  C 6.76848228476732 9.38233370269519  6.68835199550894 9.6939291135162  6.85975086843548 10.5514765537727  C 7.05443201380493 11.5236502561416  7.35790630393678 12.0338993990084  7.58127544014408 12.2926445641645  C 7.66047545178053 12.8942125613671  7.88248686227051 13.5646719875128  8.07005257057405 13.9639405727535  C 8.20745827560284 14.2557485790451  8.27147200015176 14.6523520080889  8.27147200015176 15.213590865947  C 8.27147200015176 15.7355314279879  8.25223772038657 15.7417417227657  8.13451885398192 15.7785005881954  C 6.61541257388803 16.2270240098525  4.19749943657141 17.1006628794846  3.29607771838947 17.4954308640482  C 1.81317715439085 15.7400320040948  0.916658300507188 13.4733531577473  0.916658300507188 11  C 0.916658300507188 5.44003429269896  5.44003429269899 0.916683435840949  11 0.916683435840949  C 16.559965707301 0.916683435840949  21.083316564159 5.44000915736519  21.083316564159 11  Z " fill-rule="nonzero" fill="#666666" stroke="none" transform="matrix(1 0 0 1 65 8 )" />
  </g>
</svg>