<?xml version="1.0" encoding="utf-8"?>
<svg version="1.1" xmlns:xlink="http://www.w3.org/1999/xlink" width="16px" height="16px" viewBox="598 626  16 16" xmlns="http://www.w3.org/2000/svg">
  <path d="M 606 626  C 610.48 626  614 629.52  614 634  C 614 638.48  610.48 642  606 642  C 601.52 642  598 638.48  598 634  C 598 629.52  601.52 626  606 626  Z " fill-rule="nonzero" fill="#ffffff" stroke="none" />
  <path d="M 606 626.5  C 610.2 626.5  613.5 629.8  613.5 634  C 613.5 638.2  610.2 641.5  606 641.5  C 601.8 641.5  598.5 638.2  598.5 634  C 598.5 629.8  601.8 626.5  606 626.5  Z " stroke-width="1" stroke="#f59a23" fill="none" />
  <path d="M 606 638  C 603.76 638  602 636.24  602 634  C 602 631.76  603.76 630  606 630  C 608.24 630  610 631.76  610 634  C 610 636.24  608.24 638  606 638  " fill-rule="nonzero" fill="#f59a23" stroke="none" />
</svg>