<?xml version="1.0" encoding="utf-8"?>
<svg version="1.1" xmlns:xlink="http://www.w3.org/1999/xlink" width="16px" height="16px" viewBox="761 626  16 16" xmlns="http://www.w3.org/2000/svg">
  <path d="M 769 626  C 773.48 626  777 629.52  777 634  C 777 638.48  773.48 642  769 642  C 764.52 642  761 638.48  761 634  C 761 629.52  764.52 626  769 626  Z " fill-rule="nonzero" fill="#ffffff" stroke="none" />
  <path d="M 769 626.5  C 773.2 626.5  776.5 629.8  776.5 634  C 776.5 638.2  773.2 641.5  769 641.5  C 764.8 641.5  761.5 638.2  761.5 634  C 761.5 629.8  764.8 626.5  769 626.5  Z " stroke-width="1" stroke="#70b603" fill="none" />
  <path d="M 769 638  C 766.76 638  765 636.24  765 634  C 765 631.76  766.76 630  769 630  C 771.24 630  773 631.76  773 634  C 773 636.24  771.24 638  769 638  " fill-rule="nonzero" fill="#70b603" stroke="none" />
</svg>