<?xml version="1.0" encoding="utf-8"?>
<svg version="1.1" xmlns:xlink="http://www.w3.org/1999/xlink" width="16px" height="16px" viewBox="511 626  16 16" xmlns="http://www.w3.org/2000/svg">
  <path d="M 519 626  C 523.48 626  527 629.52  527 634  C 527 638.48  523.48 642  519 642  C 514.52 642  511 638.48  511 634  C 511 629.52  514.52 626  519 626  Z " fill-rule="nonzero" fill="#ffffff" stroke="none" />
  <path d="M 519 626.5  C 523.2 626.5  526.5 629.8  526.5 634  C 526.5 638.2  523.2 641.5  519 641.5  C 514.8 641.5  511.5 638.2  511.5 634  C 511.5 629.8  514.8 626.5  519 626.5  Z " stroke-width="1" stroke="#70b603" fill="none" />
  <path d="M 519 638  C 516.76 638  515 636.24  515 634  C 515 631.76  516.76 630  519 630  C 521.24 630  523 631.76  523 634  C 523 636.24  521.24 638  519 638  " fill-rule="nonzero" fill="#70b603" stroke="none" />
</svg>