<?xml version="1.0" encoding="utf-8"?>
<svg version="1.1" xmlns:xlink="http://www.w3.org/1999/xlink" width="19px" height="19px" xmlns="http://www.w3.org/2000/svg">
  <g transform="matrix(1 0 0 1 -1127 -356 )">
    <path d="M 15.697265625 12.1138870863076  C 16.0518663194444 11.2795803590742  16.2291666666667 10.4062297209604  16.2291666666667 9.49383517196626  C 16.2291666666667 8.17045208738914  15.8704427083333 6.95803590741942  15.1529947916667 5.85658663205711  L 5.826171875 15.1408176508761  C 6.95594618055556 15.8723772442137  8.18055555555556 16.2381570408825  9.5 16.2381570408825  C 10.4153645833333 16.2381570408825  11.2874348958333 16.059377027904  12.1162109375 15.7018170019468  C 12.9449869791667 15.3442569759896  13.6603732638889 14.8654553320355  14.2623697916667 14.2654120700844  C 14.8643663194444 13.6653688081332  15.3426649305556 12.948193813541  15.697265625 12.1138870863076  Z M 2.77083333333333 9.49383517196626  C 2.77083333333333 10.825438027255  3.13780381944444 12.0542937486481  3.87174479166667 13.1804023361454  L 13.2109375 3.88384166125892  C 12.09765625 3.13584252649795  10.8606770833333 2.76184295911746  9.5 2.76184295911746  C 8.27951388888889 2.76184295911746  7.15386284722222 3.06186459009301  6.123046875 3.66190785204413  C 5.09223090277778 4.26195111399524  4.27582465277778 5.07981829980532  3.673828125 6.11550940947437  C 3.07183159722222 7.15120051914341  2.77083333333333 8.27730910664071  2.77083333333333 9.49383517196626  Z M 18.2454427083333 5.80110317975341  C 18.7484809027778 6.97242050616483  19 8.20333117023578  19 9.49383517196626  C 19 10.7843391736967  18.7484809027778 12.0173047804456  18.2454427083333 13.1927319922128  C 17.7424045138889 14.3681592039801  17.0682508680556 15.3791910015142  16.2229817708333 16.2258273848151  C 15.3777126736111 17.0724637681159  14.3675130208333 17.746484966472  13.1923828125 18.2478909798832  C 12.0172526041667 18.7492969932944  10.7864583333333 19  9.5 19  C 8.21354166666667 19  6.98274739583333 18.7492969932944  5.8076171875 18.2478909798832  C 4.63248697916667 17.746484966472  3.62228732638889 17.0724637681159  2.77701822916667 16.2258273848151  C 1.93174913194444 15.3791910015142  1.25759548611111 14.3681592039801  0.754557291666667 13.1927319922128  C 0.251519097222222 12.0173047804456  0 10.7843391736967  0 9.49383517196626  C 0 8.20333117023578  0.251519097222222 6.97242050616483  0.754557291666667 5.80110317975341  C 1.25759548611111 4.62978585334198  1.93174913194444 3.62080899848583  2.77701822916667 2.77417261518495  C 3.62228732638889 1.92753623188406  4.63248697916667 1.25351503352801  5.8076171875 0.752109020116808  C 6.98274739583333 0.250703006705601  8.21354166666667 0  9.5 0  C 10.7864583333333 0  12.0172526041667 0.250703006705601  13.1923828125 0.752109020116808  C 14.3675130208333 1.25351503352801  15.3777126736111 1.92753623188406  16.2229817708333 2.77417261518495  C 17.0682508680556 3.62080899848583  17.7424045138889 4.62978585334198  18.2454427083333 5.80110317975341  Z " fill-rule="nonzero" fill="#ffffff" stroke="none" transform="matrix(1 0 0 1 1127 356 )" />
  </g>
</svg>