<?xml version="1.0" encoding="utf-8"?>
<svg version="1.1" xmlns:xlink="http://www.w3.org/1999/xlink" width="19px" height="19px" xmlns="http://www.w3.org/2000/svg">
  <g transform="matrix(1 0 0 1 -1056 -249 )">
    <path d="M 6.78764204545455 15.7220052083333  C 6.86860795454546 15.6477864583333  6.90909090909091 15.5529513888889  6.90909090909091 15.4375  L 6.90909090909091 6.72916666666667  C 6.90909090909091 6.61371527777778  6.86860795454546 6.51888020833333  6.78764204545455 6.44466145833333  C 6.70667613636364 6.37044270833333  6.6032196969697 6.33333333333333  6.47727272727273 6.33333333333333  L 5.61363636363636 6.33333333333333  C 5.48768939393939 6.33333333333333  5.38423295454546 6.37044270833333  5.30326704545455 6.44466145833333  C 5.22230113636364 6.51888020833333  5.18181818181818 6.61371527777778  5.18181818181818 6.72916666666667  L 5.18181818181818 15.4375  C 5.18181818181818 15.5529513888889  5.22230113636364 15.6477864583333  5.30326704545455 15.7220052083333  C 5.38423295454546 15.7962239583333  5.48768939393939 15.8333333333333  5.61363636363636 15.8333333333333  L 6.47727272727273 15.8333333333333  C 6.6032196969697 15.8333333333333  6.70667613636364 15.7962239583333  6.78764204545455 15.7220052083333  Z M 10.2421875 15.7220052083333  C 10.3231534090909 15.6477864583333  10.3636363636364 15.5529513888889  10.3636363636364 15.4375  L 10.3636363636364 6.72916666666667  C 10.3636363636364 6.61371527777778  10.3231534090909 6.51888020833333  10.2421875 6.44466145833333  C 10.1612215909091 6.37044270833333  10.0577651515152 6.33333333333333  9.93181818181818 6.33333333333333  L 9.06818181818182 6.33333333333333  C 8.94223484848485 6.33333333333333  8.83877840909091 6.37044270833333  8.7578125 6.44466145833333  C 8.67684659090909 6.51888020833333  8.63636363636364 6.61371527777778  8.63636363636364 6.72916666666667  L 8.63636363636364 15.4375  C 8.63636363636364 15.5529513888889  8.67684659090909 15.6477864583333  8.7578125 15.7220052083333  C 8.83877840909091 15.7962239583333  8.94223484848485 15.8333333333333  9.06818181818182 15.8333333333333  L 9.93181818181818 15.8333333333333  C 10.0577651515152 15.8333333333333  10.1612215909091 15.7962239583333  10.2421875 15.7220052083333  Z M 13.6967329545455 15.7220052083333  C 13.7776988636364 15.6477864583333  13.8181818181818 15.5529513888889  13.8181818181818 15.4375  L 13.8181818181818 6.72916666666667  C 13.8181818181818 6.61371527777778  13.7776988636364 6.51888020833333  13.6967329545455 6.44466145833333  C 13.6157670454545 6.37044270833333  13.5123106060606 6.33333333333333  13.3863636363636 6.33333333333333  L 12.5227272727273 6.33333333333333  C 12.3967803030303 6.33333333333333  12.2933238636364 6.37044270833333  12.2123579545455 6.44466145833333  C 12.1313920454545 6.51888020833333  12.0909090909091 6.61371527777778  12.0909090909091 6.72916666666667  L 12.0909090909091 15.4375  C 12.0909090909091 15.5529513888889  12.1313920454545 15.6477864583333  12.2123579545455 15.7220052083333  C 12.2933238636364 15.7962239583333  12.3967803030303 15.8333333333333  12.5227272727273 15.8333333333333  L 13.3863636363636 15.8333333333333  C 13.5123106060606 15.8333333333333  13.6157670454545 15.7962239583333  13.6967329545455 15.7220052083333  Z M 7.13849431818182 1.71940104166667  L 6.47727272727273 3.16666666666667  L 12.5227272727273 3.16666666666667  L 11.875 1.71940104166667  C 11.8120265151515 1.64518229166667  11.7355587121212 1.59982638888889  11.6455965909091 1.58333333333333  L 7.36789772727273 1.58333333333333  C 7.27793560606061 1.59982638888889  7.2014678030303 1.64518229166667  7.13849431818182 1.71940104166667  Z M 18.8785511363636 3.27799479166667  C 18.9595170454545 3.35221354166667  19 3.44704861111111  19 3.5625  L 19 4.35416666666667  C 19 4.46961805555555  18.9595170454545 4.564453125  18.8785511363636 4.638671875  C 18.7975852272727 4.712890625  18.6941287878788 4.75  18.5681818181818 4.75  L 17 4.75  L 17 16.4765625  C 17.2727272727273 17.1610243055556  17.0613162878788 17.7527126736111  16.6384943181818 18.2516276041667  C 16.2156723484849 18.7505425347222  15.7073863636364 19  15.1136363636364 19  L 3.88636363636364 19  C 3.29261363636364 19  2.78432765151515 18.7587890625  2.36150568181818 18.2763671875  C 1.93868371212121 17.7939453125  1.72727272727273 17.2105034722222  2 16.5260416666667  L 2 4.75  L 0.431818181818182 4.75  C 0.305871212121212 4.75  0.202414772727273 4.712890625  0.121448863636364 4.638671875  C 0.0404829545454545 4.564453125  0 4.46961805555555  0 4.35416666666667  L 0 3.5625  C 0 3.44704861111111  0.0404829545454545 3.35221354166667  0.121448863636364 3.27799479166667  C 0.202414772727273 3.20377604166667  0.305871212121212 3.16666666666667  0.431818181818182 3.16666666666667  L 4.6015625 3.16666666666667  L 5.54616477272727 1.10091145833333  C 5.68110795454546 0.795789930555554  5.92400568181818 0.536024305555554  6.27485795454546 0.321614583333334  C 6.62571022727273 0.10720486111111  6.98106060606061 0  7.34090909090909 0  L 11.6590909090909 0  C 12.0189393939394 0  12.3742897727273 0.10720486111111  12.7251420454545 0.321614583333334  C 13.0759943181818 0.536024305555554  13.3188920454545 0.795789930555554  13.4538352272727 1.10091145833333  L 14.3984375 3.16666666666667  L 18.5681818181818 3.16666666666667  C 18.6941287878788 3.16666666666667  18.7975852272727 3.20377604166667  18.8785511363636 3.27799479166667  Z " fill-rule="nonzero" fill="#d9001b" stroke="none" fill-opacity="0.682352941176471" transform="matrix(1 0 0 1 1056 249 )" />
  </g>
</svg>