<?xml version="1.0" encoding="utf-8"?>
<svg version="1.1" xmlns:xlink="http://www.w3.org/1999/xlink" width="19px" height="19px" xmlns="http://www.w3.org/2000/svg">
  <g transform="matrix(1 0 0 1 -372 -165 )">
    <path d="M 17.4984975961538 1.77450284090909  C 18.4994991987179 2.95750473484848  19 4.3811553030303  19 6.04545454545455  L 19 9.5  C 19 9.73390151515151  18.9276842948718 9.93631628787879  18.7830528846154 10.1072443181818  C 18.638421474359 10.2781723484848  18.4671474358974 10.3636363636364  18.2692307692308 10.3636363636364  L 17.5384615384615 10.3636363636364  C 17.3405448717949 10.3636363636364  17.1692708333333 10.2781723484848  17.0246394230769 10.1072443181818  C 16.8800080128205 9.93631628787879  16.8076923076923 9.73390151515151  16.8076923076923 9.5  L 16.8076923076923 6.04545454545455  C 16.8076923076923 5.09185606060606  16.5222355769231 4.27769886363636  15.9513221153846 3.60298295454545  C 15.3804086538462 2.92826704545455  14.6915064102564 2.59090909090909  13.8846153846154 2.59090909090909  C 13.0777243589744 2.59090909090909  12.3888221153846 2.92826704545455  11.8179086538462 3.60298295454545  C 11.2469951923077 4.27769886363636  10.9615384615385 5.09185606060606  10.9615384615385 6.04545454545455  L 10.9615384615385 8.63636363636364  L 12.0576923076923 8.63636363636364  C 12.3621794871795 8.63636363636364  12.6209935897436 8.76231060606061  12.8341346153846 9.01420454545455  C 13.0472756410256 9.26609848484848  13.1538461538462 9.5719696969697  13.1538461538462 9.93181818181818  L 13.1538461538462 17.7045454545455  C 13.1538461538462 18.0643939393939  13.0472756410256 18.3702651515151  12.8341346153846 18.6221590909091  C 12.6209935897436 18.874053030303  12.3621794871795 19  12.0576923076923 19  L 1.09615384615385 19  C 0.791666666666667 19  0.532852564102564 18.874053030303  0.319711538461538 18.6221590909091  C 0.106570512820513 18.3702651515151  0 18.0643939393939  0 17.7045454545455  L 0 9.93181818181818  C 0 9.5719696969697  0.106570512820513 9.26609848484848  0.319711538461538 9.01420454545455  C 0.532852564102564 8.76231060606061  0.791666666666667 8.63636363636364  1.09615384615385 8.63636363636364  L 8.76923076923077 8.63636363636364  L 8.76923076923077 6.04545454545455  C 8.76923076923077 4.3811553030303  9.26973157051282 2.95750473484848  10.2707331730769 1.77450284090909  C 11.271734775641 0.591500946969697  12.4763621794872 0  13.8846153846154 0  C 15.2928685897436 0  16.4974959935897 0.591500946969697  17.4984975961538 1.77450284090909  Z " fill-rule="nonzero" fill="#ffffff" stroke="none" transform="matrix(1 0 0 1 372 165 )" />
  </g>
</svg>