<?xml version="1.0" encoding="utf-8"?>
<svg version="1.1" xmlns:xlink="http://www.w3.org/1999/xlink" width="16px" height="19px" xmlns="http://www.w3.org/2000/svg">
  <g transform="matrix(1 0 0 1 -454 -165 )">
    <path d="M 4.44444444444444 6.04545454545455  L 4.44444444444444 8.63636363636364  L 11.5555555555556 8.63636363636364  L 11.5555555555556 6.04545454545455  C 11.5555555555556 5.09185606060606  11.2083333333333 4.27769886363636  10.5138888888889 3.60298295454545  C 9.81944444444444 2.92826704545455  8.98148148148148 2.59090909090909  8 2.59090909090909  C 7.01851851851852 2.59090909090909  6.18055555555556 2.92826704545455  5.48611111111111 3.60298295454545  C 4.79166666666667 4.27769886363636  4.44444444444444 5.09185606060606  4.44444444444444 6.04545454545455  Z M 15.6111111111111 9.01420454545455  C 15.8703703703704 9.26609848484848  16 9.5719696969697  16 9.93181818181818  L 16 17.7045454545455  C 16 18.0643939393939  15.8703703703704 18.3702651515151  15.6111111111111 18.6221590909091  C 15.3518518518519 18.874053030303  15.037037037037 19  14.6666666666667 19  L 1.33333333333333 19  C 0.962962962962963 19  0.648148148148148 18.874053030303  0.388888888888889 18.6221590909091  C 0.12962962962963 18.3702651515151  0 18.0643939393939  0 17.7045454545455  L 0 9.93181818181818  C 0 9.5719696969697  0.12962962962963 9.26609848484848  0.388888888888889 9.01420454545455  C 0.648148148148148 8.76231060606061  0.962962962962963 8.63636363636364  1.33333333333333 8.63636363636364  L 1.77777777777778 8.63636363636364  L 1.77777777777778 6.04545454545455  C 1.77777777777778 4.39015151515151  2.38888888888889 2.96875  3.61111111111111 1.78125  C 4.83333333333333 0.59375  6.2962962962963 0  8 0  C 9.7037037037037 0  11.1666666666667 0.59375  12.3888888888889 1.78125  C 13.6111111111111 2.96875  14.2222222222222 4.39015151515151  14.2222222222222 6.04545454545455  L 14.2222222222222 8.63636363636364  L 14.6666666666667 8.63636363636364  C 15.037037037037 8.63636363636364  15.3518518518519 8.76231060606061  15.6111111111111 9.01420454545455  Z " fill-rule="nonzero" fill="#ffffff" stroke="none" transform="matrix(1 0 0 1 454 165 )" />
  </g>
</svg>