<?xml version="1.0" encoding="utf-8"?>
<svg version="1.1" xmlns:xlink="http://www.w3.org/1999/xlink" width="24px" height="19px" xmlns="http://www.w3.org/2000/svg">
  <g transform="matrix(1 0 0 1 -1287 -165 )">
    <path d="M 15.875 11.1193181818182  C 15.9583333333333 11.0113636363636  16 10.9034090909091  16 10.7954545454545  C 16 10.6695075757576  15.9625 10.5660511363636  15.8875 10.4850852272727  C 15.8125 10.4041193181818  15.7166666666667 10.3636363636364  15.6 10.3636363636364  L 12.8 10.3636363636364  L 12.8 5.61363636363636  C 12.8 5.4966856060606  12.7604166666667 5.39547821969697  12.68125 5.31001420454545  C 12.6020833333333 5.22455018939394  12.5083333333333 5.18181818181818  12.4 5.18181818181818  L 10 5.18181818181818  C 9.89166666666667 5.18181818181818  9.79791666666667 5.22455018939394  9.71875 5.31001420454545  C 9.63958333333333 5.39547821969697  9.6 5.4966856060606  9.6 5.61363636363636  L 9.6 10.3636363636364  L 6.8 10.3636363636364  C 6.69166666666667 10.3636363636364  6.59791666666667 10.4063683712121  6.51875 10.4918323863636  C 6.43958333333333 10.5772964015152  6.4 10.6785037878788  6.4 10.7954545454545  C 6.4 10.9214015151515  6.4375 11.0248579545455  6.5125 11.1058238636364  L 10.9125 15.8558238636364  C 10.9875 15.9367897727273  11.0833333333333 15.9772727272727  11.2 15.9772727272727  C 11.3166666666667 15.9772727272727  11.4125 15.9367897727273  11.4875 15.8558238636364  L 15.875 11.1193181818182  Z M 22.95625 10.5997869318182  C 23.6520833333333 11.5398910984848  24 12.6126893939394  24 13.8181818181818  C 24 15.2485795454545  23.53125 16.4698153409091  22.59375 17.4818892045455  C 21.65625 18.4939630681818  20.525 19  19.2 19  L 5.6 19  C 4.05833333333333 19  2.73958333333333 18.4084990530303  1.64375 17.2254971590909  C 0.547916666666667 16.0424952651515  0 14.6188446969697  0 12.9545454545455  C 0 11.7850378787879  0.291666666666667 10.7054924242424  0.875 9.71590909090909  C 1.45833333333333 8.72632575757575  2.24166666666667 7.98413825757575  3.225 7.48934659090909  C 3.20833333333333 7.21946022727273  3.2 7.02604166666667  3.2 6.90909090909091  C 3.2 5.00189393939394  3.825 3.37357954545455  5.075 2.02414772727273  C 6.325 0.674715909090909  7.83333333333333 0  9.6 0  C 10.9 0  12.0895833333333 0.391335227272728  13.16875 1.17400568181818  C 14.2479166666667 1.95667613636364  15.0333333333333 2.99573863636364  15.525 4.29119318181818  C 16.1166666666667 3.73342803030303  16.8083333333333 3.45454545454545  17.6 3.45454545454545  C 18.4833333333333 3.45454545454545  19.2375 3.79190340909091  19.8625 4.46661931818182  C 20.4875 5.14133522727273  20.8 5.95549242424242  20.8 6.90909090909091  C 20.8 7.59280303030303  20.6291666666667 8.21354166666667  20.2875 8.77130681818182  C 21.3708333333333 9.05018939393939  22.2604166666667 9.65968276515151  22.95625 10.5997869318182  Z " fill-rule="nonzero" fill="#ffffff" stroke="none" transform="matrix(1 0 0 1 1287 165 )" />
  </g>
</svg>