<?xml version="1.0" encoding="utf-8"?>
<svg version="1.1" xmlns:xlink="http://www.w3.org/1999/xlink" width="19px" height="19px" xmlns="http://www.w3.org/2000/svg">
  <g transform="matrix(1 0 0 1 -707 -165 )">
    <path d="M 15.3509114583333 10.6256510416667  C 15.6725260416667 10.4854600694444  15.8333333333333 10.2421875  15.8333333333333 9.89583333333333  L 15.8333333333333 3.95833333333333  C 15.8333333333333 3.74392361111111  15.7549913194444 3.55837673611111  15.5983072916667 3.40169270833333  C 15.4416232638889 3.24500868055555  15.2560763888889 3.16666666666667  15.0416666666667 3.16666666666667  L 9.10416666666667 3.16666666666667  C 8.7578125 3.16666666666667  8.51453993055556 3.32747395833333  8.37434895833333 3.64908854166667  C 8.23415798611111 3.98719618055555  8.29188368055556 4.27582465277778  8.54752604166667 4.51497395833333  L 10.3287760416667 6.29622395833333  L 3.72330729166667 12.9016927083333  C 3.56662326388889 13.0583767361111  3.48828125 13.2439236111111  3.48828125 13.4583333333333  C 3.48828125 13.6727430555556  3.56662326388889 13.8582899305556  3.72330729166667 14.0149739583333  L 4.98502604166667 15.2766927083333  C 5.14171006944444 15.4333767361111  5.32725694444444 15.51171875  5.54166666666667 15.51171875  C 5.75607638888889 15.51171875  5.94162326388889 15.4333767361111  6.09830729166667 15.2766927083333  L 12.7037760416667 8.67122395833333  L 14.4850260416667 10.4524739583333  C 14.6334635416667 10.6091579861111  14.8190104166667 10.6875  15.0416666666667 10.6875  C 15.140625 10.6875  15.2437065972222 10.6668836805556  15.3509114583333 10.6256510416667  Z M 17.9547526041667 1.04524739583333  C 18.6515842013889 1.74207899305555  19 2.58116319444444  19 3.5625  L 19 15.4375  C 19 16.4188368055556  18.6515842013889 17.2579210069444  17.9547526041667 17.9547526041667  C 17.2579210069444 18.6515842013889  16.4188368055556 19  15.4375 19  L 3.5625 19  C 2.58116319444444 19  1.74207899305556 18.6515842013889  1.04524739583333 17.9547526041667  C 0.348415798611111 17.2579210069444  0 16.4188368055556  0 15.4375  L 0 3.5625  C 0 2.58116319444444  0.348415798611111 1.74207899305555  1.04524739583333 1.04524739583333  C 1.74207899305556 0.34841579861111  2.58116319444444 0  3.5625 0  L 15.4375 0  C 16.4188368055556 0  17.2579210069444 0.34841579861111  17.9547526041667 1.04524739583333  Z " fill-rule="nonzero" fill="#ffffff" stroke="none" transform="matrix(1 0 0 1 707 165 )" />
  </g>
</svg>