<?xml version="1.0" encoding="utf-8"?>
<svg version="1.1" xmlns:xlink="http://www.w3.org/1999/xlink" width="21px" height="19px" xmlns="http://www.w3.org/2000/svg">
  <g transform="matrix(1 0 0 1 -1179 -249 )">
    <path d="M 16.966796875 10.6256510416667  C 17.322265625 10.4854600694444  17.5 10.2421875  17.5 9.89583333333333  L 17.5 3.95833333333333  C 17.5 3.74392361111111  17.4134114583333 3.55837673611111  17.240234375 3.40169270833333  C 17.0670572916667 3.24500868055555  16.8619791666667 3.16666666666667  16.625 3.16666666666667  L 10.0625 3.16666666666667  C 9.6796875 3.16666666666667  9.41080729166667 3.32747395833333  9.255859375 3.64908854166667  C 9.10091145833333 3.98719618055555  9.16471354166667 4.27582465277778  9.447265625 4.51497395833333  L 11.416015625 6.29622395833333  L 4.115234375 12.9016927083333  C 3.94205729166667 13.0583767361111  3.85546875 13.2439236111111  3.85546875 13.4583333333333  C 3.85546875 13.6727430555556  3.94205729166667 13.8582899305556  4.115234375 14.0149739583333  L 5.509765625 15.2766927083333  C 5.68294270833333 15.4333767361111  5.88802083333333 15.51171875  6.125 15.51171875  C 6.36197916666667 15.51171875  6.56705729166667 15.4333767361111  6.740234375 15.2766927083333  L 14.041015625 8.67122395833333  L 16.009765625 10.4524739583333  C 16.173828125 10.6091579861111  16.37890625 10.6875  16.625 10.6875  C 16.734375 10.6875  16.8483072916667 10.6668836805556  16.966796875 10.6256510416667  Z M 19.8447265625 1.04524739583333  C 20.6149088541667 1.74207899305555  21 2.58116319444444  21 3.5625  L 21 15.4375  C 21 16.4188368055556  20.6149088541667 17.2579210069444  19.8447265625 17.9547526041667  C 19.0745442708333 18.6515842013889  18.1471354166667 19  17.0625 19  L 3.9375 19  C 2.85286458333333 19  1.92545572916667 18.6515842013889  1.1552734375 17.9547526041667  C 0.385091145833333 17.2579210069444  0 16.4188368055556  0 15.4375  L 0 3.5625  C 0 2.58116319444444  0.385091145833333 1.74207899305555  1.1552734375 1.04524739583333  C 1.92545572916667 0.34841579861111  2.85286458333333 0  3.9375 0  L 17.0625 0  C 18.1471354166667 0  19.0745442708333 0.34841579861111  19.8447265625 1.04524739583333  Z " fill-rule="nonzero" fill="#ffffff" stroke="none" transform="matrix(1 0 0 1 1179 249 )" />
  </g>
</svg>