<?xml version="1.0" encoding="utf-8"?>
<svg version="1.1" xmlns:xlink="http://www.w3.org/1999/xlink" width="19px" height="19px" xmlns="http://www.w3.org/2000/svg">
  <g transform="matrix(1 0 0 1 -1143 -249 )">
    <path d="M 8.76054664289958 6.20603015075377  C 9.18201624083977 5.76046901172529  9.39275103980986 5.21943048576214  9.39275103980986 4.58291457286432  C 9.39275103980986 3.9463986599665  9.18201624083977 3.40536013400335  8.76054664289958 2.95979899497487  C 8.3390770449594 2.5142378559464  7.82729253317489 2.29145728643216  7.22519310754605 2.29145728643216  C 6.62309368191721 2.29145728643216  6.1113091701327 2.5142378559464  5.68983957219251 2.95979899497487  C 5.26836997425233 3.40536013400335  5.05763517528223 3.9463986599665  5.05763517528223 4.58291457286432  C 5.05763517528223 4.91708542713568  5.12913448207566 5.24727805695142  5.27213309566251 5.57349246231156  C 4.96355714002773 5.42231993299832  4.65121806298277 5.34673366834171  4.33511586452763 5.34673366834171  C 3.73301643889879 5.34673366834171  3.22123192711428 5.56951423785594  2.79976232917409 6.01507537688442  C 2.37829273123391 6.4606365159129  2.16755793226381 7.00167504187605  2.16755793226381 7.63819095477387  C 2.16755793226381 8.27470686767169  2.37829273123391 8.81574539363484  2.79976232917409 9.26130653266332  C 3.22123192711428 9.70686767169179  3.73301643889879 9.92964824120603  4.33511586452763 9.92964824120603  C 4.93721529015647 9.92964824120603  5.44899980194098 9.70686767169179  5.87046939988116 9.26130653266332  C 6.29193899782135 8.81574539363484  6.50267379679144 8.27470686767169  6.50267379679144 7.63819095477387  C 6.50267379679144 7.30402010050251  6.43117448999802 6.97382747068677  6.28817587641117 6.64761306532663  C 6.59675183204595 6.79878559463987  6.90909090909091 6.87437185929648  7.22519310754605 6.87437185929648  C 7.82729253317489 6.87437185929648  8.3390770449594 6.65159128978224  8.76054664289958 6.20603015075377  Z M 18.6782531194296 12.4956030150754  C 18.8927510398099 12.7581658291457  19 12.9212730318258  19 12.9849246231156  C 19 13.1201842546064  18.8156070509012 13.3827470686767  18.4468211527035 13.7726130653266  C 18.0780352545058 14.1624790619765  17.8296692414339 14.3574120603015  17.7017231134878 14.3574120603015  C 17.6339869281046 14.3574120603015  17.5267379679144 14.2937604690117  17.3799762329174 14.1664572864322  C 17.2332144979204 14.0391541038526  17.0958605664488 13.9078726968174  16.9679144385027 13.7726130653266  C 16.8399683105565 13.6373534338358  16.6950881362646 13.4782244556114  16.5332739156269 13.2952261306533  C 16.3714596949891 13.1122278056951  16.2792632204397 13.0087939698492  16.2566844919786 12.9849246231156  L 15.1729055258467 14.1306532663317  L 17.6565656565657 16.7562814070352  C 17.8673004555358 16.9790619765494  17.9726678550208 17.249581239531  17.9726678550208 17.5678391959799  C 17.9726678550208 17.9020100502513  17.8259061200238 18.2242462311558  17.5323826500297 18.5345477386935  C 17.2388591800357 18.8448492462312  16.9340463458111 19  16.6179441473559 19  C 16.3168944345415 19  16.0610021786492 18.8886097152429  15.8502673796791 18.6658291457286  L 8.27510398098633 10.6576633165829  C 6.95048524460289 11.6999581239531  5.57694592988711 12.2211055276382  4.15448603683898 12.2211055276382  C 2.92770845712022 12.2211055276382  1.92859972271737 11.813337520938  1.15715983363042 10.9978015075377  C 0.385719944543474 10.1822654941374  0 9.12604690117253  0 7.82914572864322  C 0 6.55611390284757  0.357496533967122 5.31092964824121  1.07248960190137 4.09359296482412  C 1.78748266983561 2.87625628140703  2.72073677956031 1.88965661641541  3.87225193107546 1.13379396984925  C 5.02376708259061 0.377931323283081  6.20162408397703 0  7.4058229352347 0  C 8.63260051495346 0  9.63170924935631 0.407768006700166  10.4031491384433 1.2233040201005  C 11.1745890275302 2.03884003350084  11.5603089720737 3.09505862646566  11.5603089720737 4.39195979899498  C 11.5603089720737 5.89572864321608  11.0673400673401 7.34778056951424  10.0814022578728 8.74811557788945  L 14.0891265597148 12.9849246231156  L 15.1729055258467 11.8391959798995  C 15.1503267973856 11.8153266331658  15.0524856407209 11.7178601340033  14.8793820558526 11.5467964824121  C 14.7062784709844 11.3757328308208  14.5557536145771 11.2225711892797  14.427807486631 11.0873115577889  C 14.2998613586849 10.9520519262982  14.1756783521489 10.8068467336683  14.0552584670232 10.6516959798995  C 13.9348385818974 10.4965452261307  13.8746286393345 10.3831658291457  13.8746286393345 10.3115577889447  C 13.8746286393345 10.1762981574539  14.0590215884334 9.91373534338358  14.427807486631 9.52386934673367  C 14.7965933848287 9.13400335008375  15.0449593979006 8.93907035175879  15.1729055258467 8.93907035175879  C 15.2707466825114 8.93907035175879  15.3572984749455 8.97885259631491  15.4325609031491 9.05841708542713  C 15.4777183600713 9.10615577889447  15.6508219449396 9.28318676716918  15.951871657754 9.58951005025126  C 16.2529213705684 9.89583333333333  16.5614973262032 10.2121021775544  16.8775995246583 10.5383165829146  C 17.1937017231135 10.8645309882747  17.5192117250941 11.2066582914573  17.8541295306001 11.5646984924623  C 18.1890473361062 11.9227386934673  18.4637551990493 12.233040201005  18.6782531194296 12.4956030150754  Z " fill-rule="nonzero" fill="#f59a23" stroke="none" transform="matrix(1 0 0 1 1143 249 )" />
  </g>
</svg>