<?xml version="1.0" encoding="utf-8"?>
<svg version="1.1" xmlns:xlink="http://www.w3.org/1999/xlink" width="9px" height="9px" xmlns="http://www.w3.org/2000/svg">
  <g transform="matrix(1 0 0 1 -292 -875 )">
    <path d="M 8.703125 0.1669921875  C 8.90104166666667 0.278320312499999  9 0.410156249999999  9 0.5625  L 9 8.4375  C 9 8.58984375  8.90104166666667 8.7216796875  8.703125 8.8330078125  C 8.50520833333333 8.9443359375  8.27083333333333 9  8 9  C 7.72916666666667 9  7.49479166666667 8.9443359375  7.296875 8.8330078125  L 0.296875 4.8955078125  C 0.0989583333333335 4.7841796875  0 4.65234375  0 4.5  C 0 4.34765625  0.0989583333333335 4.2158203125  0.296875 4.1044921875  L 7.296875 0.1669921875  C 7.49479166666667 0.0556640624999993  7.72916666666667 0  8 0  C 8.27083333333333 0  8.50520833333333 0.0556640624999993  8.703125 0.1669921875  Z " fill-rule="nonzero" fill="#aaaaaa" stroke="none" transform="matrix(1 0 0 1 292 875 )" />
  </g>
</svg>