<?xml version="1.0" encoding="utf-8"?>
<svg version="1.1" xmlns:xlink="http://www.w3.org/1999/xlink" width="9px" height="9px" xmlns="http://www.w3.org/2000/svg">
  <g transform="matrix(1 0 0 1 -386 -875 )">
    <path d="M 6.6357421875 4.76298701298701  L 0.3955078125 8.91233766233766  C 0.2841796875 8.98636363636364  0.1904296875 9.01168831168831  0.1142578125 8.98831168831169  C 0.0380859375 8.96493506493507  0 8.9025974025974  0 8.8012987012987  L 0 0.198701298701298  C 0 0.0974025974025966  0.0380859375 0.0350649350649346  0.1142578125 0.0116883116883112  C 0.1904296875 -0.0116883116883122  0.2841796875 0.0136363636363632  0.3955078125 0.0876623376623374  L 6.6357421875 4.23701298701299  C 6.6884765625 4.27207792207792  6.7265625 4.30909090909091  6.75 4.34805194805195  L 6.75 0.385714285714285  C 6.75 0.284415584415584  6.8056640625 0.196753246753246  6.9169921875 0.122727272727273  C 7.0283203125 0.0487012987012978  7.16015625 0.0116883116883112  7.3125 0.0116883116883112  L 8.4375 0.0116883116883112  C 8.58984375 0.0116883116883112  8.7216796875 0.0487012987012978  8.8330078125 0.122727272727273  C 8.9443359375 0.196753246753246  9 0.284415584415584  9 0.385714285714285  L 9 8.61428571428571  C 9 8.71558441558441  8.9443359375 8.80324675324675  8.8330078125 8.87727272727273  C 8.7216796875 8.9512987012987  8.58984375 8.98831168831169  8.4375 8.98831168831169  L 7.3125 8.98831168831169  C 7.16015625 8.98831168831169  7.0283203125 8.9512987012987  6.9169921875 8.87727272727273  C 6.8056640625 8.80324675324675  6.75 8.71558441558441  6.75 8.61428571428571  L 6.75 4.65194805194805  C 6.7265625 4.69090909090909  6.6884765625 4.72792207792208  6.6357421875 4.76298701298701  Z " fill-rule="nonzero" fill="#aaaaaa" stroke="none" transform="matrix(1 0 0 1 386 875 )" />
  </g>
</svg>