<?xml version="1.0" encoding="utf-8"?>
<svg version="1.1" xmlns:xlink="http://www.w3.org/1999/xlink" width="9px" height="9px" xmlns="http://www.w3.org/2000/svg">
  <g transform="matrix(1 0 0 1 -272 -875 )">
    <path d="M 2.3642578125 4.23701298701299  L 8.6044921875 0.0876623376623374  C 8.7158203125 0.0136363636363632  8.8095703125 -0.0116883116883122  8.8857421875 0.0116883116883112  C 8.9619140625 0.0350649350649346  9 0.0974025974025966  9 0.198701298701298  L 9 8.8012987012987  C 9 8.9025974025974  8.9619140625 8.96493506493507  8.8857421875 8.98831168831169  C 8.8095703125 9.01168831168831  8.7158203125 8.98636363636364  8.6044921875 8.91233766233766  L 2.3642578125 4.76298701298701  C 2.3115234375 4.72792207792208  2.2734375 4.69090909090909  2.25 4.65194805194805  L 2.25 8.61428571428571  C 2.25 8.71558441558441  2.1943359375 8.80324675324675  2.0830078125 8.87727272727273  C 1.9716796875 8.9512987012987  1.83984375 8.98831168831169  1.6875 8.98831168831169  L 0.5625 8.98831168831169  C 0.41015625 8.98831168831169  0.2783203125 8.9512987012987  0.1669921875 8.87727272727273  C 0.0556640625 8.80324675324675  0 8.71558441558441  0 8.61428571428571  L 0 0.385714285714285  C 0 0.284415584415584  0.0556640625 0.196753246753246  0.1669921875 0.122727272727273  C 0.2783203125 0.0487012987012978  0.41015625 0.0116883116883112  0.5625 0.0116883116883112  L 1.6875 0.0116883116883112  C 1.83984375 0.0116883116883112  1.9716796875 0.0487012987012978  2.0830078125 0.122727272727273  C 2.1943359375 0.196753246753246  2.25 0.284415584415584  2.25 0.385714285714285  L 2.25 4.34805194805195  C 2.2734375 4.30909090909091  2.3115234375 4.27207792207792  2.3642578125 4.23701298701299  Z " fill-rule="nonzero" fill="#aaaaaa" stroke="none" transform="matrix(1 0 0 1 272 875 )" />
  </g>
</svg>