<?xml version="1.0" encoding="utf-8"?>
<svg version="1.1" xmlns:xlink="http://www.w3.org/1999/xlink" width="9px" height="9px" xmlns="http://www.w3.org/2000/svg">
  <g transform="matrix(1 0 0 1 -366 -875 )">
    <path d="M 8.703125 4.1044921875  C 8.90104166666667 4.2158203125  9 4.34765625  9 4.5  C 9 4.65234375  8.90104166666667 4.7841796875  8.703125 4.8955078125  L 1.703125 8.8330078125  C 1.50520833333333 8.9443359375  1.27083333333333 9  1 9  C 0.729166666666667 9  0.494791666666667 8.9443359375  0.296875 8.8330078125  C 0.0989583333333333 8.7216796875  0 8.58984375  0 8.4375  L 0 0.5625  C 0 0.410156249999999  0.0989583333333333 0.278320312499999  0.296875 0.1669921875  C 0.494791666666667 0.0556640624999993  0.729166666666667 0  1 0  C 1.27083333333333 0  1.50520833333333 0.0556640624999993  1.703125 0.1669921875  L 8.703125 4.1044921875  Z " fill-rule="nonzero" fill="#aaaaaa" stroke="none" transform="matrix(1 0 0 1 366 875 )" />
  </g>
</svg>