<?xml version="1.0" encoding="utf-8"?>
<svg version="1.1" xmlns:xlink="http://www.w3.org/1999/xlink" width="71px" height="34px" xmlns="http://www.w3.org/2000/svg">
  <g transform="matrix(1 0 0 1 -423 -223 )">
    <path d="M 480.396854068103 223.5  C 480.396854068103 223.5  483.500691658891 224.243172380893  483.500691658891 224.243172380893  C 483.500691658891 224.243172380893  493.43029012892 240  493.43029012892 240  C 493.43029012892 240  483.500691658891 255.756827619107  483.500691658891 255.756827619107  C 483.500691658891 255.756827619107  480.396854068103 256.5  480.396854068103 256.5  C 480.396854068103 256.5  423.5 256.5  423.5 256.5  C 423.5 256.5  423.5 223.5  423.5 223.5  C 423.5 223.5  480.396854068103 223.5  480.396854068103 223.5  Z " fill-rule="nonzero" fill="#02a7f0" stroke="none" />
    <path d="M 480.396854068103 223.5  C 480.396854068103 223.5  483.500691658891 224.243172380893  483.500691658891 224.243172380893  C 483.500691658891 224.243172380893  493.43029012892 240  493.43029012892 240  C 493.43029012892 240  483.500691658891 255.756827619107  483.500691658891 255.756827619107  C 483.500691658891 255.756827619107  480.396854068103 256.5  480.396854068103 256.5  C 480.396854068103 256.5  423.5 256.5  423.5 256.5  C 423.5 256.5  423.5 223.5  423.5 223.5  C 423.5 223.5  480.396854068103 223.5  480.396854068103 223.5  Z " stroke-width="1" stroke="#02a7f0" fill="none" />
  </g>
</svg>