<?xml version="1.0" encoding="utf-8"?>
<svg version="1.1" xmlns:xlink="http://www.w3.org/1999/xlink" width="44px" height="44px" xmlns="http://www.w3.org/2000/svg">
  <g transform="matrix(1 0 0 1 -1224 -75 )">
    <path d="M 18.3333333333333 34.0885416666667  C 18.8298611111111 34.0885416666667  19.2595486111111 33.9071180555557  19.6223958333333 33.5442708333333  L 37.2109375 15.9557291666667  C 37.5737847222222 15.5928819444443  37.7552083333333 15.1631944444443  37.7552083333333 14.6666666666667  C 37.7552083333333 14.1701388888889  37.5737847222222 13.7404513888889  37.2109375 13.3776041666667  L 34.2890625 10.4557291666667  C 33.9262152777778 10.0928819444443  33.4965277777778 9.91145833333326  33 9.91145833333326  C 32.5034722222222 9.91145833333326  32.0737847222222 10.0928819444443  31.7109375 10.4557291666667  L 18.3333333333333 23.8333333333333  L 12.2890625 17.7890625  C 11.9262152777778 17.4262152777778  11.4965277777778 17.2447916666667  11 17.2447916666667  C 10.5034722222222 17.2447916666667  10.0737847222222 17.4262152777778  9.7109375 17.7890625  L 6.7890625 20.7109375  C 6.42621527777777 21.0737847222222  6.24479166666674 21.5034722222222  6.24479166666674 22  C 6.24479166666674 22.4965277777778  6.42621527777777 22.9262152777778  6.7890625 23.2890625  L 17.0442708333333 33.5442708333333  C 17.4071180555556 33.9071180555557  17.8368055555556 34.0885416666667  18.3333333333333 34.0885416666667  Z M 41.5794270833333 2.42057291666674  C 43.193142361111 4.03428819444434  44 5.97743055555543  44 8.25  L 44 35.75  C 44 38.0225694444443  43.193142361111 39.9657118055557  41.5794270833333 41.5794270833333  C 39.9657118055555 43.1931423611111  38.0225694444445 44  35.75 44  L 8.25 44  C 5.9774305555556 44  4.0342881944444 43.1931423611111  2.42057291666674 41.5794270833333  C 0.806857638888857 39.9657118055557  0 38.0225694444443  0 35.75  L 0 8.25  C 0 5.97743055555543  0.806857638888857 4.03428819444434  2.42057291666674 2.42057291666674  C 4.0342881944444 0.806857638888914  5.9774305555556 0  8.25 0  L 35.75 0  C 38.0225694444445 0  39.9657118055555 0.806857638888914  41.5794270833333 2.42057291666674  Z " fill-rule="nonzero" fill="#aaaaaa" stroke="none" transform="matrix(1 0 0 1 1224 75 )" />
  </g>
</svg>