<?xml version="1.0" encoding="utf-8"?>
<svg version="1.1" xmlns:xlink="http://www.w3.org/1999/xlink" width="200px" height="200px" xmlns="http://www.w3.org/2000/svg">
  <g transform="matrix(1 0 0 1 -278 -365 )">
    <path d="M 195.725014442519 162.333911034084  C 198.575004814173 165.337954939341  200 168.842672828808  200 172.848064702484  C 200 176.930483342962  198.575004814173 180.396687849028  195.725014442519 183.246678220682  L 183.362218370884 195.725014442519  C 180.358174465627 198.575004814173  176.85345657616 200  172.848064702484 200  C 168.765646062007 200  165.299441555941 198.575004814173  162.449451184287 195.725014442519  L 120.50837666089 153.66839976892  C 117.581359522434 150.895436164067  116.117850953206 147.429231658001  116.117850953206 143.269786250722  C 116.117850953206 139.187367610245  117.773926439438 135.490082803774  121.086077411901 132.177931831311  L 91.5077989601387 102.599653379549  L 76.949740034662 117.157712305026  C 75.8713652994416 118.236087040246  74.5619102638167 118.775274407857  73.0213749277874 118.775274407857  C 71.4808395917582 118.775274407857  70.1713845561333 118.236087040246  69.0930098209128 117.157712305026  C 69.2470633545157 117.311765838629  69.7284806470248 117.773926439438  70.5372616984402 118.544194107452  C 71.3460427498556 119.314461775467  71.8274600423647 119.815135759676  71.9815135759677 120.046216060081  C 72.1355671095706 120.277296360485  72.5207009435779 120.720200269594  73.1369150779896 121.374927787406  C 73.7531292124013 122.029655305219  74.1382630464086 122.549585981128  74.2923165800116 122.934719815136  C 74.4463701136145 123.319853649143  74.6774504140189 123.839784325053  74.9855574812247 124.494511842865  C 75.2936645484306 125.149239360678  75.5054881571346 125.78471018679  75.6210283073368 126.400924321202  C 75.736568457539 127.017138455613  75.7943385326401 127.710379356826  75.7943385326401 128.480647024841  C 75.7943385326401 131.407664163297  74.7159637974196 134.026574234547  72.5592143269786 136.33737723859  C 72.3281340265742 136.568457538995  71.6926632004622 137.261698440208  70.6528018486424 138.41709994223  C 69.6129404968226 139.572501444252  68.8811862122088 140.362025803967  68.4575389948007 140.785673021375  C 68.0338917773927 141.209320238783  67.3213941844791 141.844791064895  66.3200462160601 142.692085499711  C 65.3186982476411 143.539379934527  64.471403812825 144.136337377239  63.7781629116118 144.482957827845  C 63.0849220103986 144.829578278452  62.2376275755825 145.176198729058  61.2362796071635 145.522819179665  C 60.2349316387445 145.869439630272  59.2335836703255 146.042749855575  58.2322357019064 146.042749855575  C 55.1511650298479 146.042749855575  52.5322549585981 144.964375120354  50.3755054881571 142.807625649913  L 3.23512420566147 95.6672443674177  C 1.07837473522049 93.5104948969767  0 90.891584825727  0 87.8105141536684  C 0 86.8091661852494  0.173310225303293 85.8078182168303  0.519930675909879 84.8064702484113  C 0.866551126516464 83.8051222799923  1.21317157712305 82.9578278451762  1.55979202772964 82.264586943963  C 1.90641247833622 81.5713460427499  2.50336992104756 80.7240516079337  3.35066435586366 79.7227036395147  C 4.19795879067976 78.7213556710957  4.83342961679184 78.0088580781821  5.25707683419988 77.5852108607741  C 5.68072405160793 77.1615636433661  6.47024841132293 76.4298093587522  7.62564991334489 75.3899480069324  C 8.78105141536684 74.3500866551126  9.47429231658001 73.7146158290006  9.7053726169844 73.4835355285962  C 12.0161756210283 71.3267860581552  14.6350856922781 70.2484113229347  17.5621028307337 70.2484113229347  C 18.3323704987483 70.2484113229347  19.0256113999615 70.3061813980358  19.6418255343732 70.421721548238  C 20.2580396687849 70.5372616984402  20.893510494897 70.7490853071442  21.5482380127094 71.0571923743501  C 22.2029655305219 71.3652994415559  22.7228962064317 71.5963797419603  23.1080300404391 71.7504332755633  C 23.4931638744464 71.9044868091662  24.0130945503563 72.2896206431735  24.6678220681687 72.9058347775852  C 25.3225495859811 73.5220489119969  25.7654534950895 73.9071827460042  25.9965337954939 74.0612362796072  C 26.2276140958983 74.2152898132101  26.7282880801078 74.6967071057192  27.4985557481225 75.5054881571346  C 28.2688234161371 76.31426920855  28.7309840169459 76.7956865010591  28.8850375505488 76.949740034662  C 27.8066628153283 75.8713652994415  27.2674754477181 74.5619102638167  27.2674754477181 73.0213749277874  C 27.2674754477181 71.4808395917581  27.8066628153283 70.1713845561332  28.8850375505488 69.0930098209128  L 69.0930098209128 28.8850375505488  C 70.1713845561333 27.8066628153283  71.4808395917582 27.2674754477181  73.0213749277874 27.2674754477181  C 74.5619102638167 27.2674754477181  75.8713652994416 27.8066628153283  76.949740034662 28.8850375505488  C 76.7956865010591 28.7309840169459  76.31426920855 28.2688234161371  75.5054881571346 27.4985557481225  C 74.6967071057192 26.7282880801078  74.2152898132101 26.2276140958983  74.0612362796072 25.9965337954939  C 73.9071827460042 25.7654534950895  73.5220489119969 25.3225495859811  72.9058347775852 24.6678220681687  C 72.2896206431735 24.0130945503563  71.9044868091662 23.4931638744464  71.7504332755633 23.108030040439  C 71.5963797419603 22.7228962064317  71.3652994415559 22.2029655305218  71.0571923743501 21.5482380127094  C 70.7490853071442 20.893510494897  70.5372616984402 20.2580396687849  70.421721548238 19.6418255343732  C 70.3061813980358 19.0256113999615  70.2484113229347 18.3323704987483  70.2484113229347 17.5621028307337  C 70.2484113229347 14.6350856922781  71.3267860581552 12.0161756210283  73.4835355285962 9.70537261698441  C 73.7146158290006 9.47429231658001  74.3500866551127 8.78105141536685  75.3899480069324 7.62564991334489  C 76.4298093587522 6.47024841132293  77.1615636433661 5.68072405160791  77.5852108607741 5.25707683419989  C 78.0088580781822 4.83342961679183  78.7213556710957 4.19795879067975  79.7227036395147 3.35066435586366  C 80.7240516079338 2.50336992104754  81.5713460427499 1.90641247833623  82.264586943963 1.55979202772965  C 82.9578278451762 1.21317157712304  83.8051222799923 0.866551126516457  84.8064702484113 0.519930675909874  C 85.8078182168304 0.173310225303291  86.8091661852494 0  87.8105141536684 0  C 90.891584825727 0  93.5104948969767 1.07837473522048  95.6672443674177 3.23512420566148  L 142.807625649913 50.3755054881571  C 144.964375120354 52.5322549585981  146.042749855575 55.1511650298479  146.042749855575 58.2322357019064  C 146.042749855575 59.2335836703254  145.869439630272 60.2349316387444  145.522819179665 61.2362796071635  C 145.176198729058 62.2376275755825  144.829578278452 63.0849220103986  144.482957827845 63.7781629116118  C 144.136337377239 64.4714038128249  143.539379934527 65.3186982476411  142.692085499711 66.3200462160601  C 141.844791064895 67.3213941844791  141.209320238783 68.0338917773926  140.785673021375 68.4575389948007  C 140.362025803967 68.8811862122087  139.572501444252 69.6129404968226  138.41709994223 70.6528018486424  C 137.261698440208 71.6926632004622  136.568457538995 72.3281340265742  136.33737723859 72.5592143269786  C 134.026574234547 74.7159637974196  131.407664163297 75.7943385326401  128.480647024841 75.7943385326401  C 127.710379356827 75.7943385326401  127.017138455613 75.736568457539  126.400924321202 75.6210283073368  C 125.78471018679 75.5054881571346  125.149239360678 75.2936645484306  124.494511842865 74.9855574812247  C 123.839784325053 74.6774504140189  123.319853649143 74.4463701136145  122.934719815136 74.2923165800116  C 122.549585981128 74.1382630464086  122.029655305219 73.7531292124013  121.374927787406 73.1369150779896  C 120.720200269594 72.5207009435779  120.277296360485 72.1355671095706  120.046216060081 71.9815135759677  C 119.815135759676 71.8274600423647  119.314461775467 71.3460427498556  118.544194107452 70.5372616984402  C 117.773926439438 69.7284806470248  117.311765838629 69.2470633545157  117.157712305026 69.0930098209128  C 118.236087040247 70.1713845561332  118.775274407857 71.4808395917581  118.775274407857 73.0213749277874  C 118.775274407857 74.5619102638167  118.236087040247 75.8713652994415  117.157712305026 76.949740034662  L 102.599653379549 91.5077989601387  L 132.177931831311 121.086077411901  C 135.490082803774 117.773926439438  139.187367610245 116.117850953206  143.269786250722 116.117850953206  C 147.275178124398 116.117850953206  150.779896013865 117.542846139033  153.783939919122 120.392836510687  L 195.725014442519 162.333911034084  Z " fill-rule="nonzero" fill="#0085e6" stroke="none" transform="matrix(1 0 0 1 278 365 )" />
  </g>
</svg>