<?xml version="1.0" encoding="utf-8"?>
<svg version="1.1" xmlns:xlink="http://www.w3.org/1999/xlink" width="15px" height="14px" xmlns="http://www.w3.org/2000/svg">
  <defs>
    <mask fill="white" id="clip102">
      <path d="M 0 12.7272727272727  L 0 1.27272727272727  C 0 0.559999999999997  0.942857142857138 0  2.14285714285714 0  L 12.8571428571429 0  C 14.0571428571429 0  15 0.559999999999997  15 1.27272727272727  L 15 9.54545454545455  L 15 12.7272727272727  C 15 13.44  14.0571428571429 14  12.8571428571429 14  L 8.57142857142857 14  L 2.14285714285714 14  C 0.942857142857138 14  0 13.44  0 12.7272727272727  Z " fill-rule="evenodd" />
    </mask>
  </defs>
  <g transform="matrix(1 0 0 1 -70 -205 )">
    <path d="M 0 12.7272727272727  L 0 1.27272727272727  C 0 0.559999999999997  0.942857142857138 0  2.14285714285714 0  L 12.8571428571429 0  C 14.0571428571429 0  15 0.559999999999997  15 1.27272727272727  L 15 9.54545454545455  L 15 12.7272727272727  C 15 13.44  14.0571428571429 14  12.8571428571429 14  L 8.57142857142857 14  L 2.14285714285714 14  C 0.942857142857138 14  0 13.44  0 12.7272727272727  Z " fill-rule="nonzero" fill="#ffffff" stroke="none" transform="matrix(1 0 0 1 70 205 )" />
    <path d="M 0 12.7272727272727  L 0 1.27272727272727  C 0 0.559999999999997  0.942857142857138 0  2.14285714285714 0  L 12.8571428571429 0  C 14.0571428571429 0  15 0.559999999999997  15 1.27272727272727  L 15 9.54545454545455  L 15 12.7272727272727  C 15 13.44  14.0571428571429 14  12.8571428571429 14  L 8.57142857142857 14  L 2.14285714285714 14  C 0.942857142857138 14  0 13.44  0 12.7272727272727  Z " stroke-width="2" stroke="#d9d9d9" fill="none" transform="matrix(1 0 0 1 70 205 )" mask="url(#clip102)" />
  </g>
</svg>