<?xml version="1.0" encoding="utf-8"?>
<svg version="1.1" xmlns:xlink="http://www.w3.org/1999/xlink" width="6px" height="18px" xmlns="http://www.w3.org/2000/svg">
  <g transform="matrix(1 0 0 1 -442 -175 )">
    <path d="M 5.33729792147807 13.7428977272727  C 5.50842956120093 13.9048295454545  5.59399538106232 14.0965909090909  5.59399538106232 14.3181818181818  L 5.59399538106232 17.1818181818182  C 5.59399538106232 17.4034090909091  5.50842956120093 17.5951704545455  5.33729792147807 17.7571022727273  C 5.16616628175519 17.9190340909091  4.96351039260972 18  4.72933025404156 18  L 1.27066974595842 18  C 1.03648960739028 18  0.833833718244783 17.9190340909091  0.662702078521929 17.7571022727273  C 0.491570438799099 17.5951704545455  0.406004618937636 17.4034090909091  0.406004618937636 17.1818181818182  L 0.406004618937636 14.3181818181818  C 0.406004618937636 14.0965909090909  0.491570438799099 13.9048295454545  0.662702078521929 13.7428977272727  C 0.833833718244783 13.5809659090909  1.03648960739028 13.5  1.27066974595842 13.5  L 4.72933025404156 13.5  C 4.96351039260972 13.5  5.16616628175519 13.5809659090909  5.33729792147807 13.7428977272727  Z M 5.76287528868361 0.242897727272727  C 5.92950346420326 0.404829545454514  6.00831408775982 0.596590909090878  5.99930715935333 0.818181818181818  L 5.62101616628171 10.6363636363636  C 5.6120092378753 10.8579545454546  5.51968822170898 11.0497159090908  5.3440531177829 11.2116477272727  C 5.16841801385683 11.3735795454545  4.96351039260972 11.4545454545455  4.72933025404156 11.4545454545455  L 1.27066974595842 11.4545454545455  C 1.03648960739028 11.4545454545455  0.831581986143172 11.3735795454545  0.655946882217073 11.2116477272727  C 0.480311778290999 11.0497159090908  0.387990762124704 10.8579545454546  0.378983833718238 10.6363636363636  L 0.00069284064664186 0.818181818181818  C -0.00831408775982413 0.596590909090878  0.0704965357967594 0.404829545454514  0.237124711316417 0.242897727272727  C 0.403752886836026 0.0809659090908471  0.604157043879888 0  0.838337182448028 0  L 5.161662817552 0  C 5.39584295612006 0  5.59624711316395 0.0809659090908471  5.76287528868361 0.242897727272727  Z " fill-rule="nonzero" fill="#02a7f0" stroke="none" transform="matrix(1 0 0 1 442 175 )" />
  </g>
</svg>