<?xml version="1.0" encoding="utf-8"?>
<svg version="1.1" xmlns:xlink="http://www.w3.org/1999/xlink" width="33px" height="30px" xmlns="http://www.w3.org/2000/svg">
  <g transform="matrix(1 0 0 1 -1079 -101 )">
    <path d="M 13.75 23.2421875  C 14.1223958333333 23.2421875  14.4446614583333 23.1184895833333  14.716796875 22.87109375  L 27.908203125 10.87890625  C 28.1803385416667 10.6315104166667  28.31640625 10.3385416666667  28.31640625 10  C 28.31640625 9.66145833333333  28.1803385416667 9.36848958333333  27.908203125 9.12109375  L 25.716796875 7.12890625  C 25.4446614583333 6.88151041666666  25.1223958333333 6.7578125  24.75 6.7578125  C 24.3776041666667 6.7578125  24.0553385416667 6.88151041666666  23.783203125 7.12890625  L 13.75 16.25  L 9.216796875 12.12890625  C 8.94466145833333 11.8815104166667  8.62239583333333 11.7578125  8.25 11.7578125  C 7.87760416666667 11.7578125  7.55533854166667 11.8815104166667  7.283203125 12.12890625  L 5.091796875 14.12109375  C 4.81966145833333 14.3684895833333  4.68359375 14.6614583333333  4.68359375 15  C 4.68359375 15.3385416666667  4.81966145833333 15.6315104166667  5.091796875 15.87890625  L 12.783203125 22.87109375  C 13.0553385416667 23.1184895833333  13.3776041666667 23.2421875  13.75 23.2421875  Z M 31.1845703125 1.650390625  C 32.3948567708333 2.75065104166666  33 4.07552083333333  33 5.625  L 33 24.375  C 33 25.9244791666667  32.3948567708333 27.2493489583333  31.1845703125 28.349609375  C 29.9742838541667 29.4498697916667  28.5169270833333 30  26.8125 30  L 6.1875 30  C 4.48307291666667 30  3.02571614583333 29.4498697916667  1.8154296875 28.349609375  C 0.605143229166667 27.2493489583333  0 25.9244791666667  0 24.375  L 0 5.625  C 0 4.07552083333333  0.605143229166667 2.75065104166666  1.8154296875 1.650390625  C 3.02571614583333 0.550130208333331  4.48307291666667 0  6.1875 0  L 26.8125 0  C 28.5169270833333 0  29.9742838541667 0.550130208333331  31.1845703125 1.650390625  Z " fill-rule="nonzero" fill="#10e9a8" stroke="none" transform="matrix(1 0 0 1 1079 101 )" />
  </g>
</svg>