<?xml version="1.0" encoding="utf-8"?>
<svg version="1.1" xmlns:xlink="http://www.w3.org/1999/xlink" width="33px" height="30px" xmlns="http://www.w3.org/2000/svg">
  <g transform="matrix(1 0 0 1 -1140 -279 )">
    <path d="M 24.27734375 20.3125  C 24.5494791666667 20.0651041666667  24.685546875 19.765625  24.685546875 19.4140625  C 24.685546875 19.0755208333333  24.5494791666667 18.7825520833333  24.27734375 18.53515625  L 20.388671875 15  L 24.27734375 11.46484375  C 24.5494791666667 11.2174479166667  24.685546875 10.9244791666667  24.685546875 10.5859375  C 24.685546875 10.234375  24.5494791666667 9.93489583333333  24.27734375 9.6875  L 22.34375 7.9296875  C 22.0716145833333 7.68229166666667  21.7421875 7.55859375  21.35546875 7.55859375  C 20.9830729166667 7.55859375  20.6608072916667 7.68229166666667  20.388671875 7.9296875  L 16.5 11.46484375  L 12.611328125 7.9296875  C 12.3391927083333 7.68229166666667  12.0169270833333 7.55859375  11.64453125 7.55859375  C 11.2578125 7.55859375  10.9283854166667 7.68229166666667  10.65625 7.9296875  L 8.72265625 9.6875  C 8.45052083333333 9.93489583333333  8.314453125 10.234375  8.314453125 10.5859375  C 8.314453125 10.9244791666667  8.45052083333333 11.2174479166667  8.72265625 11.46484375  L 12.611328125 15  L 8.72265625 18.53515625  C 8.45052083333333 18.7825520833333  8.314453125 19.0755208333333  8.314453125 19.4140625  C 8.314453125 19.765625  8.45052083333333 20.0651041666667  8.72265625 20.3125  L 10.65625 22.0703125  C 10.9283854166667 22.3177083333333  11.2578125 22.44140625  11.64453125 22.44140625  C 12.0169270833333 22.44140625  12.3391927083333 22.3177083333333  12.611328125 22.0703125  L 16.5 18.53515625  L 20.388671875 22.0703125  C 20.6608072916667 22.3177083333333  20.9830729166667 22.44140625  21.35546875 22.44140625  C 21.7421875 22.44140625  22.0716145833333 22.3177083333333  22.34375 22.0703125  L 24.27734375 20.3125  Z M 30.787109375 7.470703125  C 32.2623697916667 9.76888020833333  33 12.2786458333333  33 15  C 33 17.7213541666667  32.2623697916667 20.2311197916667  30.787109375 22.529296875  C 29.3118489583333 24.8274739583333  27.3102213541667 26.6471354166667  24.7822265625 27.98828125  C 22.2542317708333 29.3294270833333  19.4934895833333 30  16.5 30  C 13.5065104166667 30  10.7457682291667 29.3294270833333  8.2177734375 27.98828125  C 5.68977864583333 26.6471354166667  3.68815104166667 24.8274739583333  2.212890625 22.529296875  C 0.737630208333333 20.2311197916667  0 17.7213541666667  0 15  C 0 12.2786458333333  0.737630208333333 9.76888020833333  2.212890625 7.470703125  C 3.68815104166667 5.17252604166667  5.68977864583333 3.35286458333333  8.2177734375 2.01171875  C 10.7457682291667 0.670572916666664  13.5065104166667 0  16.5 0  C 19.4934895833333 0  22.2542317708333 0.670572916666664  24.7822265625 2.01171875  C 27.3102213541667 3.35286458333333  29.3118489583333 5.17252604166667  30.787109375 7.470703125  Z " fill-rule="nonzero" fill="#d9001b" stroke="none" fill-opacity="0.729411764705882" transform="matrix(1 0 0 1 1140 279 )" />
  </g>
</svg>